G04 #@! TF.GenerationSoftware,KiCad,Pcbnew,(5.1.4)-1*
G04 #@! TF.CreationDate,2020-11-28T02:07:29-06:00*
G04 #@! TF.ProjectId,NO_Sensor_Breakout,4e4f5f53-656e-4736-9f72-5f427265616b,rev?*
G04 #@! TF.SameCoordinates,Original*
G04 #@! TF.FileFunction,Copper,L2,Bot*
G04 #@! TF.FilePolarity,Positive*
%FSLAX46Y46*%
G04 Gerber Fmt 4.6, Leading zero omitted, Abs format (unit mm)*
G04 Created by KiCad (PCBNEW (5.1.4)-1) date 2020-11-28 02:07:29*
%MOMM*%
%LPD*%
G04 APERTURE LIST*
%ADD10C,0.700000*%
%ADD11C,1.524000*%
%ADD12C,0.800000*%
%ADD13C,0.254000*%
%ADD14C,0.381000*%
G04 APERTURE END LIST*
D10*
X169926000Y-82423000D03*
X169926000Y-83185000D03*
X170942000Y-83185000D03*
X170942000Y-82423000D03*
X172466000Y-83185000D03*
X172466000Y-82423000D03*
D11*
X161544000Y-83312000D03*
X161544000Y-83312000D03*
X161544000Y-85852000D03*
X161544000Y-88392000D03*
X161544000Y-90932000D03*
D12*
X166116000Y-88900000D03*
X163576000Y-88900000D03*
X176022000Y-86106000D03*
X171196000Y-80010000D03*
X175260000Y-80010000D03*
X171196000Y-85344000D03*
X166878000Y-82804000D03*
X164033200Y-82804000D03*
X165049200Y-85598000D03*
X165049200Y-90932000D03*
X169164000Y-85598000D03*
D13*
X166878000Y-82804000D02*
X164033200Y-82804000D01*
D14*
X165049200Y-85598000D02*
X165049200Y-90932000D01*
X165049200Y-85598000D02*
X169164000Y-85598000D01*
D13*
G36*
X173684128Y-72867575D02*
G01*
X174367215Y-73073811D01*
X174997230Y-73408796D01*
X175550180Y-73859772D01*
X176005008Y-74409564D01*
X176344380Y-75037220D01*
X176555379Y-75718847D01*
X176631975Y-76447609D01*
X176632001Y-76455129D01*
X176632000Y-87778855D01*
X176607550Y-87719827D01*
X176158833Y-87048275D01*
X175587725Y-86477167D01*
X174916173Y-86028450D01*
X174169984Y-85719368D01*
X173377834Y-85561800D01*
X172570166Y-85561800D01*
X171778016Y-85719368D01*
X171031827Y-86028450D01*
X170360275Y-86477167D01*
X169789167Y-87048275D01*
X169340450Y-87719827D01*
X169031368Y-88466016D01*
X168873800Y-89258166D01*
X168873800Y-90065834D01*
X169031368Y-90857984D01*
X169340450Y-91604173D01*
X169789167Y-92275725D01*
X170360275Y-92846833D01*
X171031827Y-93295550D01*
X171090854Y-93320000D01*
X158769854Y-93320000D01*
X158582559Y-93301636D01*
X158421497Y-93253008D01*
X158272949Y-93174023D01*
X158142570Y-93067689D01*
X158035326Y-92938054D01*
X157955305Y-92790058D01*
X157905554Y-92629339D01*
X157886000Y-92443293D01*
X157886000Y-90819424D01*
X160401000Y-90819424D01*
X160401000Y-91044576D01*
X160444925Y-91265401D01*
X160531087Y-91473413D01*
X160656174Y-91660620D01*
X160815380Y-91819826D01*
X161002587Y-91944913D01*
X161210599Y-92031075D01*
X161431424Y-92075000D01*
X161656576Y-92075000D01*
X161877401Y-92031075D01*
X162085413Y-91944913D01*
X162272620Y-91819826D01*
X162431826Y-91660620D01*
X162556913Y-91473413D01*
X162643075Y-91265401D01*
X162687000Y-91044576D01*
X162687000Y-90819424D01*
X162643075Y-90598599D01*
X162556913Y-90390587D01*
X162431826Y-90203380D01*
X162272620Y-90044174D01*
X162085413Y-89919087D01*
X161877401Y-89832925D01*
X161656576Y-89789000D01*
X161431424Y-89789000D01*
X161210599Y-89832925D01*
X161002587Y-89919087D01*
X160815380Y-90044174D01*
X160656174Y-90203380D01*
X160531087Y-90390587D01*
X160444925Y-90598599D01*
X160401000Y-90819424D01*
X157886000Y-90819424D01*
X157886000Y-85739424D01*
X160401000Y-85739424D01*
X160401000Y-85964576D01*
X160444925Y-86185401D01*
X160531087Y-86393413D01*
X160656174Y-86580620D01*
X160815380Y-86739826D01*
X161002587Y-86864913D01*
X161210599Y-86951075D01*
X161431424Y-86995000D01*
X161656576Y-86995000D01*
X161877401Y-86951075D01*
X162085413Y-86864913D01*
X162272620Y-86739826D01*
X162431826Y-86580620D01*
X162556913Y-86393413D01*
X162643075Y-86185401D01*
X162687000Y-85964576D01*
X162687000Y-85739424D01*
X162643569Y-85521078D01*
X164268200Y-85521078D01*
X164268200Y-85674922D01*
X164298213Y-85825809D01*
X164357087Y-85967942D01*
X164442558Y-86095859D01*
X164477700Y-86131001D01*
X164477701Y-90398998D01*
X164442558Y-90434141D01*
X164357087Y-90562058D01*
X164298213Y-90704191D01*
X164268200Y-90855078D01*
X164268200Y-91008922D01*
X164298213Y-91159809D01*
X164357087Y-91301942D01*
X164442558Y-91429859D01*
X164551341Y-91538642D01*
X164679258Y-91624113D01*
X164821391Y-91682987D01*
X164972278Y-91713000D01*
X165126122Y-91713000D01*
X165277009Y-91682987D01*
X165419142Y-91624113D01*
X165547059Y-91538642D01*
X165655842Y-91429859D01*
X165741313Y-91301942D01*
X165800187Y-91159809D01*
X165830200Y-91008922D01*
X165830200Y-90855078D01*
X165800187Y-90704191D01*
X165741313Y-90562058D01*
X165655842Y-90434141D01*
X165620700Y-90398999D01*
X165620700Y-86169500D01*
X168630999Y-86169500D01*
X168666141Y-86204642D01*
X168794058Y-86290113D01*
X168936191Y-86348987D01*
X169087078Y-86379000D01*
X169240922Y-86379000D01*
X169391809Y-86348987D01*
X169533942Y-86290113D01*
X169661859Y-86204642D01*
X169770642Y-86095859D01*
X169856113Y-85967942D01*
X169914987Y-85825809D01*
X169945000Y-85674922D01*
X169945000Y-85521078D01*
X169914987Y-85370191D01*
X169856113Y-85228058D01*
X169770642Y-85100141D01*
X169661859Y-84991358D01*
X169533942Y-84905887D01*
X169391809Y-84847013D01*
X169240922Y-84817000D01*
X169087078Y-84817000D01*
X168936191Y-84847013D01*
X168794058Y-84905887D01*
X168666141Y-84991358D01*
X168630999Y-85026500D01*
X165582201Y-85026500D01*
X165547059Y-84991358D01*
X165419142Y-84905887D01*
X165277009Y-84847013D01*
X165126122Y-84817000D01*
X164972278Y-84817000D01*
X164821391Y-84847013D01*
X164679258Y-84905887D01*
X164551341Y-84991358D01*
X164442558Y-85100141D01*
X164357087Y-85228058D01*
X164298213Y-85370191D01*
X164268200Y-85521078D01*
X162643569Y-85521078D01*
X162643075Y-85518599D01*
X162556913Y-85310587D01*
X162431826Y-85123380D01*
X162272620Y-84964174D01*
X162085413Y-84839087D01*
X161877401Y-84752925D01*
X161656576Y-84709000D01*
X161431424Y-84709000D01*
X161210599Y-84752925D01*
X161002587Y-84839087D01*
X160815380Y-84964174D01*
X160656174Y-85123380D01*
X160531087Y-85310587D01*
X160444925Y-85518599D01*
X160401000Y-85739424D01*
X157886000Y-85739424D01*
X157886000Y-83199424D01*
X160401000Y-83199424D01*
X160401000Y-83424576D01*
X160444925Y-83645401D01*
X160531087Y-83853413D01*
X160656174Y-84040620D01*
X160815380Y-84199826D01*
X161002587Y-84324913D01*
X161210599Y-84411075D01*
X161431424Y-84455000D01*
X161656576Y-84455000D01*
X161877401Y-84411075D01*
X162085413Y-84324913D01*
X162272620Y-84199826D01*
X162431826Y-84040620D01*
X162556913Y-83853413D01*
X162643075Y-83645401D01*
X162687000Y-83424576D01*
X162687000Y-83199424D01*
X162643075Y-82978599D01*
X162556913Y-82770587D01*
X162527842Y-82727078D01*
X163252200Y-82727078D01*
X163252200Y-82880922D01*
X163282213Y-83031809D01*
X163341087Y-83173942D01*
X163426558Y-83301859D01*
X163535341Y-83410642D01*
X163663258Y-83496113D01*
X163805391Y-83554987D01*
X163956278Y-83585000D01*
X164110122Y-83585000D01*
X164261009Y-83554987D01*
X164403142Y-83496113D01*
X164531059Y-83410642D01*
X164629701Y-83312000D01*
X166281499Y-83312000D01*
X166380141Y-83410642D01*
X166508058Y-83496113D01*
X166650191Y-83554987D01*
X166801078Y-83585000D01*
X166954922Y-83585000D01*
X167105809Y-83554987D01*
X167247942Y-83496113D01*
X167375859Y-83410642D01*
X167484642Y-83301859D01*
X167570113Y-83173942D01*
X167628987Y-83031809D01*
X167659000Y-82880922D01*
X167659000Y-82727078D01*
X167628987Y-82576191D01*
X167570113Y-82434058D01*
X167484642Y-82306141D01*
X167375859Y-82197358D01*
X167247942Y-82111887D01*
X167105809Y-82053013D01*
X166954922Y-82023000D01*
X166801078Y-82023000D01*
X166650191Y-82053013D01*
X166508058Y-82111887D01*
X166380141Y-82197358D01*
X166281499Y-82296000D01*
X164629701Y-82296000D01*
X164531059Y-82197358D01*
X164403142Y-82111887D01*
X164261009Y-82053013D01*
X164110122Y-82023000D01*
X163956278Y-82023000D01*
X163805391Y-82053013D01*
X163663258Y-82111887D01*
X163535341Y-82197358D01*
X163426558Y-82306141D01*
X163341087Y-82434058D01*
X163282213Y-82576191D01*
X163252200Y-82727078D01*
X162527842Y-82727078D01*
X162431826Y-82583380D01*
X162272620Y-82424174D01*
X162085413Y-82299087D01*
X161877401Y-82212925D01*
X161656576Y-82169000D01*
X161431424Y-82169000D01*
X161210599Y-82212925D01*
X161002587Y-82299087D01*
X160815380Y-82424174D01*
X160656174Y-82583380D01*
X160531087Y-82770587D01*
X160444925Y-82978599D01*
X160401000Y-83199424D01*
X157886000Y-83199424D01*
X157886000Y-78337146D01*
X157910450Y-78396173D01*
X158359167Y-79067725D01*
X158930275Y-79638833D01*
X159601827Y-80087550D01*
X160348016Y-80396632D01*
X161140166Y-80554200D01*
X161947834Y-80554200D01*
X162739984Y-80396632D01*
X163486173Y-80087550D01*
X164157725Y-79638833D01*
X164728833Y-79067725D01*
X165177550Y-78396173D01*
X165486632Y-77649984D01*
X165644200Y-76857834D01*
X165644200Y-76050166D01*
X165486632Y-75258016D01*
X165177550Y-74511827D01*
X164728833Y-73840275D01*
X164157725Y-73269167D01*
X163486173Y-72820450D01*
X163427146Y-72796000D01*
X172954146Y-72796000D01*
X173684128Y-72867575D01*
X173684128Y-72867575D01*
G37*
X173684128Y-72867575D02*
X174367215Y-73073811D01*
X174997230Y-73408796D01*
X175550180Y-73859772D01*
X176005008Y-74409564D01*
X176344380Y-75037220D01*
X176555379Y-75718847D01*
X176631975Y-76447609D01*
X176632001Y-76455129D01*
X176632000Y-87778855D01*
X176607550Y-87719827D01*
X176158833Y-87048275D01*
X175587725Y-86477167D01*
X174916173Y-86028450D01*
X174169984Y-85719368D01*
X173377834Y-85561800D01*
X172570166Y-85561800D01*
X171778016Y-85719368D01*
X171031827Y-86028450D01*
X170360275Y-86477167D01*
X169789167Y-87048275D01*
X169340450Y-87719827D01*
X169031368Y-88466016D01*
X168873800Y-89258166D01*
X168873800Y-90065834D01*
X169031368Y-90857984D01*
X169340450Y-91604173D01*
X169789167Y-92275725D01*
X170360275Y-92846833D01*
X171031827Y-93295550D01*
X171090854Y-93320000D01*
X158769854Y-93320000D01*
X158582559Y-93301636D01*
X158421497Y-93253008D01*
X158272949Y-93174023D01*
X158142570Y-93067689D01*
X158035326Y-92938054D01*
X157955305Y-92790058D01*
X157905554Y-92629339D01*
X157886000Y-92443293D01*
X157886000Y-90819424D01*
X160401000Y-90819424D01*
X160401000Y-91044576D01*
X160444925Y-91265401D01*
X160531087Y-91473413D01*
X160656174Y-91660620D01*
X160815380Y-91819826D01*
X161002587Y-91944913D01*
X161210599Y-92031075D01*
X161431424Y-92075000D01*
X161656576Y-92075000D01*
X161877401Y-92031075D01*
X162085413Y-91944913D01*
X162272620Y-91819826D01*
X162431826Y-91660620D01*
X162556913Y-91473413D01*
X162643075Y-91265401D01*
X162687000Y-91044576D01*
X162687000Y-90819424D01*
X162643075Y-90598599D01*
X162556913Y-90390587D01*
X162431826Y-90203380D01*
X162272620Y-90044174D01*
X162085413Y-89919087D01*
X161877401Y-89832925D01*
X161656576Y-89789000D01*
X161431424Y-89789000D01*
X161210599Y-89832925D01*
X161002587Y-89919087D01*
X160815380Y-90044174D01*
X160656174Y-90203380D01*
X160531087Y-90390587D01*
X160444925Y-90598599D01*
X160401000Y-90819424D01*
X157886000Y-90819424D01*
X157886000Y-85739424D01*
X160401000Y-85739424D01*
X160401000Y-85964576D01*
X160444925Y-86185401D01*
X160531087Y-86393413D01*
X160656174Y-86580620D01*
X160815380Y-86739826D01*
X161002587Y-86864913D01*
X161210599Y-86951075D01*
X161431424Y-86995000D01*
X161656576Y-86995000D01*
X161877401Y-86951075D01*
X162085413Y-86864913D01*
X162272620Y-86739826D01*
X162431826Y-86580620D01*
X162556913Y-86393413D01*
X162643075Y-86185401D01*
X162687000Y-85964576D01*
X162687000Y-85739424D01*
X162643569Y-85521078D01*
X164268200Y-85521078D01*
X164268200Y-85674922D01*
X164298213Y-85825809D01*
X164357087Y-85967942D01*
X164442558Y-86095859D01*
X164477700Y-86131001D01*
X164477701Y-90398998D01*
X164442558Y-90434141D01*
X164357087Y-90562058D01*
X164298213Y-90704191D01*
X164268200Y-90855078D01*
X164268200Y-91008922D01*
X164298213Y-91159809D01*
X164357087Y-91301942D01*
X164442558Y-91429859D01*
X164551341Y-91538642D01*
X164679258Y-91624113D01*
X164821391Y-91682987D01*
X164972278Y-91713000D01*
X165126122Y-91713000D01*
X165277009Y-91682987D01*
X165419142Y-91624113D01*
X165547059Y-91538642D01*
X165655842Y-91429859D01*
X165741313Y-91301942D01*
X165800187Y-91159809D01*
X165830200Y-91008922D01*
X165830200Y-90855078D01*
X165800187Y-90704191D01*
X165741313Y-90562058D01*
X165655842Y-90434141D01*
X165620700Y-90398999D01*
X165620700Y-86169500D01*
X168630999Y-86169500D01*
X168666141Y-86204642D01*
X168794058Y-86290113D01*
X168936191Y-86348987D01*
X169087078Y-86379000D01*
X169240922Y-86379000D01*
X169391809Y-86348987D01*
X169533942Y-86290113D01*
X169661859Y-86204642D01*
X169770642Y-86095859D01*
X169856113Y-85967942D01*
X169914987Y-85825809D01*
X169945000Y-85674922D01*
X169945000Y-85521078D01*
X169914987Y-85370191D01*
X169856113Y-85228058D01*
X169770642Y-85100141D01*
X169661859Y-84991358D01*
X169533942Y-84905887D01*
X169391809Y-84847013D01*
X169240922Y-84817000D01*
X169087078Y-84817000D01*
X168936191Y-84847013D01*
X168794058Y-84905887D01*
X168666141Y-84991358D01*
X168630999Y-85026500D01*
X165582201Y-85026500D01*
X165547059Y-84991358D01*
X165419142Y-84905887D01*
X165277009Y-84847013D01*
X165126122Y-84817000D01*
X164972278Y-84817000D01*
X164821391Y-84847013D01*
X164679258Y-84905887D01*
X164551341Y-84991358D01*
X164442558Y-85100141D01*
X164357087Y-85228058D01*
X164298213Y-85370191D01*
X164268200Y-85521078D01*
X162643569Y-85521078D01*
X162643075Y-85518599D01*
X162556913Y-85310587D01*
X162431826Y-85123380D01*
X162272620Y-84964174D01*
X162085413Y-84839087D01*
X161877401Y-84752925D01*
X161656576Y-84709000D01*
X161431424Y-84709000D01*
X161210599Y-84752925D01*
X161002587Y-84839087D01*
X160815380Y-84964174D01*
X160656174Y-85123380D01*
X160531087Y-85310587D01*
X160444925Y-85518599D01*
X160401000Y-85739424D01*
X157886000Y-85739424D01*
X157886000Y-83199424D01*
X160401000Y-83199424D01*
X160401000Y-83424576D01*
X160444925Y-83645401D01*
X160531087Y-83853413D01*
X160656174Y-84040620D01*
X160815380Y-84199826D01*
X161002587Y-84324913D01*
X161210599Y-84411075D01*
X161431424Y-84455000D01*
X161656576Y-84455000D01*
X161877401Y-84411075D01*
X162085413Y-84324913D01*
X162272620Y-84199826D01*
X162431826Y-84040620D01*
X162556913Y-83853413D01*
X162643075Y-83645401D01*
X162687000Y-83424576D01*
X162687000Y-83199424D01*
X162643075Y-82978599D01*
X162556913Y-82770587D01*
X162527842Y-82727078D01*
X163252200Y-82727078D01*
X163252200Y-82880922D01*
X163282213Y-83031809D01*
X163341087Y-83173942D01*
X163426558Y-83301859D01*
X163535341Y-83410642D01*
X163663258Y-83496113D01*
X163805391Y-83554987D01*
X163956278Y-83585000D01*
X164110122Y-83585000D01*
X164261009Y-83554987D01*
X164403142Y-83496113D01*
X164531059Y-83410642D01*
X164629701Y-83312000D01*
X166281499Y-83312000D01*
X166380141Y-83410642D01*
X166508058Y-83496113D01*
X166650191Y-83554987D01*
X166801078Y-83585000D01*
X166954922Y-83585000D01*
X167105809Y-83554987D01*
X167247942Y-83496113D01*
X167375859Y-83410642D01*
X167484642Y-83301859D01*
X167570113Y-83173942D01*
X167628987Y-83031809D01*
X167659000Y-82880922D01*
X167659000Y-82727078D01*
X167628987Y-82576191D01*
X167570113Y-82434058D01*
X167484642Y-82306141D01*
X167375859Y-82197358D01*
X167247942Y-82111887D01*
X167105809Y-82053013D01*
X166954922Y-82023000D01*
X166801078Y-82023000D01*
X166650191Y-82053013D01*
X166508058Y-82111887D01*
X166380141Y-82197358D01*
X166281499Y-82296000D01*
X164629701Y-82296000D01*
X164531059Y-82197358D01*
X164403142Y-82111887D01*
X164261009Y-82053013D01*
X164110122Y-82023000D01*
X163956278Y-82023000D01*
X163805391Y-82053013D01*
X163663258Y-82111887D01*
X163535341Y-82197358D01*
X163426558Y-82306141D01*
X163341087Y-82434058D01*
X163282213Y-82576191D01*
X163252200Y-82727078D01*
X162527842Y-82727078D01*
X162431826Y-82583380D01*
X162272620Y-82424174D01*
X162085413Y-82299087D01*
X161877401Y-82212925D01*
X161656576Y-82169000D01*
X161431424Y-82169000D01*
X161210599Y-82212925D01*
X161002587Y-82299087D01*
X160815380Y-82424174D01*
X160656174Y-82583380D01*
X160531087Y-82770587D01*
X160444925Y-82978599D01*
X160401000Y-83199424D01*
X157886000Y-83199424D01*
X157886000Y-78337146D01*
X157910450Y-78396173D01*
X158359167Y-79067725D01*
X158930275Y-79638833D01*
X159601827Y-80087550D01*
X160348016Y-80396632D01*
X161140166Y-80554200D01*
X161947834Y-80554200D01*
X162739984Y-80396632D01*
X163486173Y-80087550D01*
X164157725Y-79638833D01*
X164728833Y-79067725D01*
X165177550Y-78396173D01*
X165486632Y-77649984D01*
X165644200Y-76857834D01*
X165644200Y-76050166D01*
X165486632Y-75258016D01*
X165177550Y-74511827D01*
X164728833Y-73840275D01*
X164157725Y-73269167D01*
X163486173Y-72820450D01*
X163427146Y-72796000D01*
X172954146Y-72796000D01*
X173684128Y-72867575D01*
M02*
