M48
; DRILL file {KiCad (5.1.4)-1} date 11/28/2020 2:07:30 AM
; FORMAT={-:-/ absolute / inch / decimal}
; #@! TF.CreationDate,2020-11-28T02:07:30-06:00
; #@! TF.GenerationSoftware,Kicad,Pcbnew,(5.1.4)-1
; #@! TF.FileFunction,Plated,1,2,PTH
FMAT,2
INCH
T1C0.0138
T2C0.0157
T3C0.0354
%
G90
G05
T1
X6.69Y-3.245
X6.69Y-3.275
X6.73Y-3.245
X6.73Y-3.275
X6.79Y-3.245
X6.79Y-3.275
T2
X6.44Y-3.5
X6.458Y-3.26
X6.498Y-3.37
X6.498Y-3.58
X6.54Y-3.5
X6.57Y-3.26
X6.66Y-3.37
X6.74Y-3.15
X6.74Y-3.36
X6.9Y-3.15
X6.93Y-3.39
T3
X6.36Y-3.28
X6.36Y-3.28
X6.36Y-3.38
X6.36Y-3.48
X6.36Y-3.58
T0
M30
