G04 #@! TF.GenerationSoftware,KiCad,Pcbnew,(5.1.4)-1*
G04 #@! TF.CreationDate,2020-11-28T02:07:29-06:00*
G04 #@! TF.ProjectId,NO_Sensor_Breakout,4e4f5f53-656e-4736-9f72-5f427265616b,rev?*
G04 #@! TF.SameCoordinates,Original*
G04 #@! TF.FileFunction,Soldermask,Top*
G04 #@! TF.FilePolarity,Negative*
%FSLAX46Y46*%
G04 Gerber Fmt 4.6, Leading zero omitted, Abs format (unit mm)*
G04 Created by KiCad (PCBNEW (5.1.4)-1) date 2020-11-28 02:07:29*
%MOMM*%
%LPD*%
G04 APERTURE LIST*
%ADD10C,0.100000*%
G04 APERTURE END LIST*
D10*
G36*
X161781142Y-90150242D02*
G01*
X161929101Y-90211529D01*
X162062255Y-90300499D01*
X162175501Y-90413745D01*
X162264471Y-90546899D01*
X162325758Y-90694858D01*
X162357000Y-90851925D01*
X162357000Y-91012075D01*
X162325758Y-91169142D01*
X162264471Y-91317101D01*
X162175501Y-91450255D01*
X162062255Y-91563501D01*
X161929101Y-91652471D01*
X161781142Y-91713758D01*
X161624075Y-91745000D01*
X161463925Y-91745000D01*
X161306858Y-91713758D01*
X161158899Y-91652471D01*
X161025745Y-91563501D01*
X160912499Y-91450255D01*
X160823529Y-91317101D01*
X160762242Y-91169142D01*
X160731000Y-91012075D01*
X160731000Y-90851925D01*
X160762242Y-90694858D01*
X160823529Y-90546899D01*
X160912499Y-90413745D01*
X161025745Y-90300499D01*
X161158899Y-90211529D01*
X161306858Y-90150242D01*
X161463925Y-90119000D01*
X161624075Y-90119000D01*
X161781142Y-90150242D01*
X161781142Y-90150242D01*
G37*
G36*
X173209873Y-88154857D02*
G01*
X173418593Y-88196374D01*
X173695979Y-88311271D01*
X173862784Y-88422727D01*
X173936639Y-88472075D01*
X173945621Y-88478077D01*
X174157923Y-88690379D01*
X174324729Y-88940021D01*
X174439626Y-89217407D01*
X174498200Y-89511879D01*
X174498200Y-89812121D01*
X174439626Y-90106593D01*
X174324729Y-90383979D01*
X174215869Y-90546899D01*
X174157924Y-90633620D01*
X173945620Y-90845924D01*
X173936637Y-90851926D01*
X173695979Y-91012729D01*
X173418593Y-91127626D01*
X173271357Y-91156913D01*
X173124122Y-91186200D01*
X172823878Y-91186200D01*
X172676643Y-91156913D01*
X172529407Y-91127626D01*
X172252021Y-91012729D01*
X172011363Y-90851926D01*
X172002380Y-90845924D01*
X171790076Y-90633620D01*
X171732131Y-90546899D01*
X171623271Y-90383979D01*
X171508374Y-90106593D01*
X171449800Y-89812121D01*
X171449800Y-89511879D01*
X171508374Y-89217407D01*
X171623271Y-88940021D01*
X171790077Y-88690379D01*
X172002379Y-88478077D01*
X172011362Y-88472075D01*
X172085216Y-88422727D01*
X172252021Y-88311271D01*
X172529407Y-88196374D01*
X172738127Y-88154857D01*
X172823878Y-88137800D01*
X173124122Y-88137800D01*
X173209873Y-88154857D01*
X173209873Y-88154857D01*
G37*
G36*
X161781142Y-87610242D02*
G01*
X161929101Y-87671529D01*
X162062255Y-87760499D01*
X162175501Y-87873745D01*
X162264471Y-88006899D01*
X162325758Y-88154858D01*
X162357000Y-88311925D01*
X162357000Y-88472075D01*
X162325758Y-88629142D01*
X162264471Y-88777101D01*
X162175501Y-88910255D01*
X162062255Y-89023501D01*
X161929101Y-89112471D01*
X161781142Y-89173758D01*
X161624075Y-89205000D01*
X161463925Y-89205000D01*
X161306858Y-89173758D01*
X161158899Y-89112471D01*
X161025745Y-89023501D01*
X160912499Y-88910255D01*
X160823529Y-88777101D01*
X160762242Y-88629142D01*
X160731000Y-88472075D01*
X160731000Y-88311925D01*
X160762242Y-88154858D01*
X160823529Y-88006899D01*
X160912499Y-87873745D01*
X161025745Y-87760499D01*
X161158899Y-87671529D01*
X161306858Y-87610242D01*
X161463925Y-87579000D01*
X161624075Y-87579000D01*
X161781142Y-87610242D01*
X161781142Y-87610242D01*
G37*
G36*
X168775999Y-86854445D02*
G01*
X168813495Y-86865820D01*
X168848054Y-86884292D01*
X168878347Y-86909153D01*
X168903208Y-86939446D01*
X168921680Y-86974005D01*
X168933055Y-87011501D01*
X168937500Y-87056638D01*
X168937500Y-87695362D01*
X168933055Y-87740499D01*
X168921680Y-87777995D01*
X168903208Y-87812554D01*
X168878347Y-87842847D01*
X168848054Y-87867708D01*
X168813495Y-87886180D01*
X168775999Y-87897555D01*
X168730862Y-87902000D01*
X167967138Y-87902000D01*
X167922001Y-87897555D01*
X167884505Y-87886180D01*
X167849946Y-87867708D01*
X167819653Y-87842847D01*
X167794792Y-87812554D01*
X167776320Y-87777995D01*
X167764945Y-87740499D01*
X167760500Y-87695362D01*
X167760500Y-87056638D01*
X167764945Y-87011501D01*
X167776320Y-86974005D01*
X167794792Y-86939446D01*
X167819653Y-86909153D01*
X167849946Y-86884292D01*
X167884505Y-86865820D01*
X167922001Y-86854445D01*
X167967138Y-86850000D01*
X168730862Y-86850000D01*
X168775999Y-86854445D01*
X168775999Y-86854445D01*
G37*
G36*
X167050999Y-86854445D02*
G01*
X167088495Y-86865820D01*
X167123054Y-86884292D01*
X167153347Y-86909153D01*
X167178208Y-86939446D01*
X167196680Y-86974005D01*
X167208055Y-87011501D01*
X167212500Y-87056638D01*
X167212500Y-87695362D01*
X167208055Y-87740499D01*
X167196680Y-87777995D01*
X167178208Y-87812554D01*
X167153347Y-87842847D01*
X167123054Y-87867708D01*
X167088495Y-87886180D01*
X167050999Y-87897555D01*
X167005862Y-87902000D01*
X166242138Y-87902000D01*
X166197001Y-87897555D01*
X166159505Y-87886180D01*
X166124946Y-87867708D01*
X166094653Y-87842847D01*
X166069792Y-87812554D01*
X166051320Y-87777995D01*
X166039945Y-87740499D01*
X166035500Y-87695362D01*
X166035500Y-87056638D01*
X166039945Y-87011501D01*
X166051320Y-86974005D01*
X166069792Y-86939446D01*
X166094653Y-86909153D01*
X166124946Y-86884292D01*
X166159505Y-86865820D01*
X166197001Y-86854445D01*
X166242138Y-86850000D01*
X167005862Y-86850000D01*
X167050999Y-86854445D01*
X167050999Y-86854445D01*
G37*
G36*
X161781142Y-85070242D02*
G01*
X161929101Y-85131529D01*
X162062255Y-85220499D01*
X162175501Y-85333745D01*
X162264471Y-85466899D01*
X162325758Y-85614858D01*
X162357000Y-85771925D01*
X162357000Y-85932075D01*
X162325758Y-86089142D01*
X162264471Y-86237101D01*
X162175501Y-86370255D01*
X162062255Y-86483501D01*
X161929101Y-86572471D01*
X161781142Y-86633758D01*
X161624075Y-86665000D01*
X161463925Y-86665000D01*
X161306858Y-86633758D01*
X161158899Y-86572471D01*
X161025745Y-86483501D01*
X160912499Y-86370255D01*
X160823529Y-86237101D01*
X160762242Y-86089142D01*
X160731000Y-85932075D01*
X160731000Y-85771925D01*
X160762242Y-85614858D01*
X160823529Y-85466899D01*
X160912499Y-85333745D01*
X161025745Y-85220499D01*
X161158899Y-85131529D01*
X161306858Y-85070242D01*
X161463925Y-85039000D01*
X161624075Y-85039000D01*
X161781142Y-85070242D01*
X161781142Y-85070242D01*
G37*
G36*
X167254999Y-83806445D02*
G01*
X167292495Y-83817820D01*
X167327054Y-83836292D01*
X167357347Y-83861153D01*
X167382208Y-83891446D01*
X167400680Y-83926005D01*
X167412055Y-83963501D01*
X167416500Y-84008638D01*
X167416500Y-84647362D01*
X167412055Y-84692499D01*
X167400680Y-84729995D01*
X167382208Y-84764554D01*
X167357347Y-84794847D01*
X167327054Y-84819708D01*
X167292495Y-84838180D01*
X167254999Y-84849555D01*
X167209862Y-84854000D01*
X166546138Y-84854000D01*
X166501001Y-84849555D01*
X166463505Y-84838180D01*
X166428946Y-84819708D01*
X166398653Y-84794847D01*
X166373792Y-84764554D01*
X166355320Y-84729995D01*
X166343945Y-84692499D01*
X166339500Y-84647362D01*
X166339500Y-84008638D01*
X166343945Y-83963501D01*
X166355320Y-83926005D01*
X166373792Y-83891446D01*
X166398653Y-83861153D01*
X166428946Y-83836292D01*
X166463505Y-83817820D01*
X166501001Y-83806445D01*
X166546138Y-83802000D01*
X167209862Y-83802000D01*
X167254999Y-83806445D01*
X167254999Y-83806445D01*
G37*
G36*
X165429999Y-83806445D02*
G01*
X165467495Y-83817820D01*
X165502054Y-83836292D01*
X165532347Y-83861153D01*
X165557208Y-83891446D01*
X165575680Y-83926005D01*
X165587055Y-83963501D01*
X165591500Y-84008638D01*
X165591500Y-84647362D01*
X165587055Y-84692499D01*
X165575680Y-84729995D01*
X165557208Y-84764554D01*
X165532347Y-84794847D01*
X165502054Y-84819708D01*
X165467495Y-84838180D01*
X165429999Y-84849555D01*
X165384862Y-84854000D01*
X164721138Y-84854000D01*
X164676001Y-84849555D01*
X164638505Y-84838180D01*
X164603946Y-84819708D01*
X164573653Y-84794847D01*
X164548792Y-84764554D01*
X164530320Y-84729995D01*
X164518945Y-84692499D01*
X164514500Y-84647362D01*
X164514500Y-84008638D01*
X164518945Y-83963501D01*
X164530320Y-83926005D01*
X164548792Y-83891446D01*
X164573653Y-83861153D01*
X164603946Y-83836292D01*
X164638505Y-83817820D01*
X164676001Y-83806445D01*
X164721138Y-83802000D01*
X165384862Y-83802000D01*
X165429999Y-83806445D01*
X165429999Y-83806445D01*
G37*
G36*
X173340900Y-84743300D02*
G01*
X169076500Y-84743300D01*
X169076500Y-84141300D01*
X173340900Y-84141300D01*
X173340900Y-84743300D01*
X173340900Y-84743300D01*
G37*
G36*
X161781142Y-82530242D02*
G01*
X161929101Y-82591529D01*
X162062255Y-82680499D01*
X162175501Y-82793745D01*
X162264471Y-82926899D01*
X162325758Y-83074858D01*
X162357000Y-83231925D01*
X162357000Y-83392075D01*
X162325758Y-83549142D01*
X162264471Y-83697101D01*
X162175501Y-83830255D01*
X162062255Y-83943501D01*
X161929101Y-84032471D01*
X161781142Y-84093758D01*
X161624075Y-84125000D01*
X161463925Y-84125000D01*
X161306858Y-84093758D01*
X161158899Y-84032471D01*
X161025745Y-83943501D01*
X160912499Y-83830255D01*
X160823529Y-83697101D01*
X160762242Y-83549142D01*
X160731000Y-83392075D01*
X160731000Y-83231925D01*
X160762242Y-83074858D01*
X160823529Y-82926899D01*
X160912499Y-82793745D01*
X161025745Y-82680499D01*
X161158899Y-82591529D01*
X161306858Y-82530242D01*
X161463925Y-82499000D01*
X161624075Y-82499000D01*
X161781142Y-82530242D01*
X161781142Y-82530242D01*
G37*
G36*
X174164000Y-83971000D02*
G01*
X173562000Y-83971000D01*
X173562000Y-81637000D01*
X174164000Y-81637000D01*
X174164000Y-83971000D01*
X174164000Y-83971000D01*
G37*
G36*
X168906200Y-83971000D02*
G01*
X168304200Y-83971000D01*
X168304200Y-81637000D01*
X168906200Y-81637000D01*
X168906200Y-83971000D01*
X168906200Y-83971000D01*
G37*
G36*
X173112000Y-83700000D02*
G01*
X171820000Y-83700000D01*
X171820000Y-81908000D01*
X173112000Y-81908000D01*
X173112000Y-83700000D01*
X173112000Y-83700000D01*
G37*
G36*
X171510000Y-83700000D02*
G01*
X169358000Y-83700000D01*
X169358000Y-81908000D01*
X171510000Y-81908000D01*
X171510000Y-83700000D01*
X171510000Y-83700000D01*
G37*
G36*
X167254999Y-81012445D02*
G01*
X167292495Y-81023820D01*
X167327054Y-81042292D01*
X167357347Y-81067153D01*
X167382208Y-81097446D01*
X167400680Y-81132005D01*
X167412055Y-81169501D01*
X167416500Y-81214638D01*
X167416500Y-81853362D01*
X167412055Y-81898499D01*
X167400680Y-81935995D01*
X167382208Y-81970554D01*
X167357347Y-82000847D01*
X167327054Y-82025708D01*
X167292495Y-82044180D01*
X167254999Y-82055555D01*
X167209862Y-82060000D01*
X166546138Y-82060000D01*
X166501001Y-82055555D01*
X166463505Y-82044180D01*
X166428946Y-82025708D01*
X166398653Y-82000847D01*
X166373792Y-81970554D01*
X166355320Y-81935995D01*
X166343945Y-81898499D01*
X166339500Y-81853362D01*
X166339500Y-81214638D01*
X166343945Y-81169501D01*
X166355320Y-81132005D01*
X166373792Y-81097446D01*
X166398653Y-81067153D01*
X166428946Y-81042292D01*
X166463505Y-81023820D01*
X166501001Y-81012445D01*
X166546138Y-81008000D01*
X167209862Y-81008000D01*
X167254999Y-81012445D01*
X167254999Y-81012445D01*
G37*
G36*
X165429999Y-81012445D02*
G01*
X165467495Y-81023820D01*
X165502054Y-81042292D01*
X165532347Y-81067153D01*
X165557208Y-81097446D01*
X165575680Y-81132005D01*
X165587055Y-81169501D01*
X165591500Y-81214638D01*
X165591500Y-81853362D01*
X165587055Y-81898499D01*
X165575680Y-81935995D01*
X165557208Y-81970554D01*
X165532347Y-82000847D01*
X165502054Y-82025708D01*
X165467495Y-82044180D01*
X165429999Y-82055555D01*
X165384862Y-82060000D01*
X164721138Y-82060000D01*
X164676001Y-82055555D01*
X164638505Y-82044180D01*
X164603946Y-82025708D01*
X164573653Y-82000847D01*
X164548792Y-81970554D01*
X164530320Y-81935995D01*
X164518945Y-81898499D01*
X164514500Y-81853362D01*
X164514500Y-81214638D01*
X164518945Y-81169501D01*
X164530320Y-81132005D01*
X164548792Y-81097446D01*
X164573653Y-81067153D01*
X164603946Y-81042292D01*
X164638505Y-81023820D01*
X164676001Y-81012445D01*
X164721138Y-81008000D01*
X165384862Y-81008000D01*
X165429999Y-81012445D01*
X165429999Y-81012445D01*
G37*
G36*
X173340900Y-81441300D02*
G01*
X169076500Y-81441300D01*
X169076500Y-80839300D01*
X173340900Y-80839300D01*
X173340900Y-81441300D01*
X173340900Y-81441300D01*
G37*
G36*
X161841357Y-74959087D02*
G01*
X161988593Y-74988374D01*
X162265979Y-75103271D01*
X162515621Y-75270077D01*
X162727923Y-75482379D01*
X162894729Y-75732021D01*
X163009626Y-76009407D01*
X163068200Y-76303879D01*
X163068200Y-76604121D01*
X163009626Y-76898593D01*
X162894729Y-77175979D01*
X162727923Y-77425621D01*
X162515621Y-77637923D01*
X162265979Y-77804729D01*
X161988593Y-77919626D01*
X161841357Y-77948913D01*
X161694122Y-77978200D01*
X161393878Y-77978200D01*
X161246643Y-77948913D01*
X161099407Y-77919626D01*
X160822021Y-77804729D01*
X160572379Y-77637923D01*
X160360077Y-77425621D01*
X160193271Y-77175979D01*
X160078374Y-76898593D01*
X160019800Y-76604121D01*
X160019800Y-76303879D01*
X160078374Y-76009407D01*
X160193271Y-75732021D01*
X160360077Y-75482379D01*
X160572379Y-75270077D01*
X160822021Y-75103271D01*
X161099407Y-74988374D01*
X161246643Y-74959087D01*
X161393878Y-74929800D01*
X161694122Y-74929800D01*
X161841357Y-74959087D01*
X161841357Y-74959087D01*
G37*
M02*
