G04 #@! TF.GenerationSoftware,KiCad,Pcbnew,(5.1.4)-1*
G04 #@! TF.CreationDate,2020-11-28T02:07:29-06:00*
G04 #@! TF.ProjectId,NO_Sensor_Breakout,4e4f5f53-656e-4736-9f72-5f427265616b,rev?*
G04 #@! TF.SameCoordinates,Original*
G04 #@! TF.FileFunction,Paste,Top*
G04 #@! TF.FilePolarity,Positive*
%FSLAX46Y46*%
G04 Gerber Fmt 4.6, Leading zero omitted, Abs format (unit mm)*
G04 Created by KiCad (PCBNEW (5.1.4)-1) date 2020-11-28 02:07:29*
%MOMM*%
%LPD*%
G04 APERTURE LIST*
%ADD10R,0.200000X0.500000*%
%ADD11R,0.500000X0.200000*%
%ADD12R,1.190000X1.690000*%
%ADD13R,2.050000X1.690000*%
%ADD14C,0.100000*%
%ADD15C,0.950000*%
G04 APERTURE END LIST*
D10*
X170218100Y-81140300D03*
X169722800Y-81140300D03*
X169227500Y-81140300D03*
X172694600Y-81140300D03*
X172199300Y-81140300D03*
X173189900Y-81140300D03*
X171704000Y-81140300D03*
X170713400Y-81140300D03*
X171208700Y-81140300D03*
X173189900Y-84442300D03*
X172199300Y-84442300D03*
X172694600Y-84442300D03*
X171704000Y-84442300D03*
X171208700Y-84442300D03*
X170713400Y-84442300D03*
X170218100Y-84442300D03*
D11*
X168605200Y-83820000D03*
X173863000Y-83820000D03*
X173863000Y-83312000D03*
X173863000Y-82804000D03*
X173863000Y-82296000D03*
X173863000Y-81788000D03*
D10*
X169722800Y-84442300D03*
X169227500Y-84442300D03*
D11*
X168605200Y-81788000D03*
X168605200Y-82296000D03*
X168605200Y-82804000D03*
X168605200Y-83312000D03*
D12*
X172466000Y-82804000D03*
D13*
X170434000Y-82804000D03*
D14*
G36*
X167151279Y-81060144D02*
G01*
X167174334Y-81063563D01*
X167196943Y-81069227D01*
X167218887Y-81077079D01*
X167239957Y-81087044D01*
X167259948Y-81099026D01*
X167278668Y-81112910D01*
X167295938Y-81128562D01*
X167311590Y-81145832D01*
X167325474Y-81164552D01*
X167337456Y-81184543D01*
X167347421Y-81205613D01*
X167355273Y-81227557D01*
X167360937Y-81250166D01*
X167364356Y-81273221D01*
X167365500Y-81296500D01*
X167365500Y-81771500D01*
X167364356Y-81794779D01*
X167360937Y-81817834D01*
X167355273Y-81840443D01*
X167347421Y-81862387D01*
X167337456Y-81883457D01*
X167325474Y-81903448D01*
X167311590Y-81922168D01*
X167295938Y-81939438D01*
X167278668Y-81955090D01*
X167259948Y-81968974D01*
X167239957Y-81980956D01*
X167218887Y-81990921D01*
X167196943Y-81998773D01*
X167174334Y-82004437D01*
X167151279Y-82007856D01*
X167128000Y-82009000D01*
X166628000Y-82009000D01*
X166604721Y-82007856D01*
X166581666Y-82004437D01*
X166559057Y-81998773D01*
X166537113Y-81990921D01*
X166516043Y-81980956D01*
X166496052Y-81968974D01*
X166477332Y-81955090D01*
X166460062Y-81939438D01*
X166444410Y-81922168D01*
X166430526Y-81903448D01*
X166418544Y-81883457D01*
X166408579Y-81862387D01*
X166400727Y-81840443D01*
X166395063Y-81817834D01*
X166391644Y-81794779D01*
X166390500Y-81771500D01*
X166390500Y-81296500D01*
X166391644Y-81273221D01*
X166395063Y-81250166D01*
X166400727Y-81227557D01*
X166408579Y-81205613D01*
X166418544Y-81184543D01*
X166430526Y-81164552D01*
X166444410Y-81145832D01*
X166460062Y-81128562D01*
X166477332Y-81112910D01*
X166496052Y-81099026D01*
X166516043Y-81087044D01*
X166537113Y-81077079D01*
X166559057Y-81069227D01*
X166581666Y-81063563D01*
X166604721Y-81060144D01*
X166628000Y-81059000D01*
X167128000Y-81059000D01*
X167151279Y-81060144D01*
X167151279Y-81060144D01*
G37*
D15*
X166878000Y-81534000D03*
D14*
G36*
X165326279Y-81060144D02*
G01*
X165349334Y-81063563D01*
X165371943Y-81069227D01*
X165393887Y-81077079D01*
X165414957Y-81087044D01*
X165434948Y-81099026D01*
X165453668Y-81112910D01*
X165470938Y-81128562D01*
X165486590Y-81145832D01*
X165500474Y-81164552D01*
X165512456Y-81184543D01*
X165522421Y-81205613D01*
X165530273Y-81227557D01*
X165535937Y-81250166D01*
X165539356Y-81273221D01*
X165540500Y-81296500D01*
X165540500Y-81771500D01*
X165539356Y-81794779D01*
X165535937Y-81817834D01*
X165530273Y-81840443D01*
X165522421Y-81862387D01*
X165512456Y-81883457D01*
X165500474Y-81903448D01*
X165486590Y-81922168D01*
X165470938Y-81939438D01*
X165453668Y-81955090D01*
X165434948Y-81968974D01*
X165414957Y-81980956D01*
X165393887Y-81990921D01*
X165371943Y-81998773D01*
X165349334Y-82004437D01*
X165326279Y-82007856D01*
X165303000Y-82009000D01*
X164803000Y-82009000D01*
X164779721Y-82007856D01*
X164756666Y-82004437D01*
X164734057Y-81998773D01*
X164712113Y-81990921D01*
X164691043Y-81980956D01*
X164671052Y-81968974D01*
X164652332Y-81955090D01*
X164635062Y-81939438D01*
X164619410Y-81922168D01*
X164605526Y-81903448D01*
X164593544Y-81883457D01*
X164583579Y-81862387D01*
X164575727Y-81840443D01*
X164570063Y-81817834D01*
X164566644Y-81794779D01*
X164565500Y-81771500D01*
X164565500Y-81296500D01*
X164566644Y-81273221D01*
X164570063Y-81250166D01*
X164575727Y-81227557D01*
X164583579Y-81205613D01*
X164593544Y-81184543D01*
X164605526Y-81164552D01*
X164619410Y-81145832D01*
X164635062Y-81128562D01*
X164652332Y-81112910D01*
X164671052Y-81099026D01*
X164691043Y-81087044D01*
X164712113Y-81077079D01*
X164734057Y-81069227D01*
X164756666Y-81063563D01*
X164779721Y-81060144D01*
X164803000Y-81059000D01*
X165303000Y-81059000D01*
X165326279Y-81060144D01*
X165326279Y-81060144D01*
G37*
D15*
X165053000Y-81534000D03*
D14*
G36*
X167151279Y-83854144D02*
G01*
X167174334Y-83857563D01*
X167196943Y-83863227D01*
X167218887Y-83871079D01*
X167239957Y-83881044D01*
X167259948Y-83893026D01*
X167278668Y-83906910D01*
X167295938Y-83922562D01*
X167311590Y-83939832D01*
X167325474Y-83958552D01*
X167337456Y-83978543D01*
X167347421Y-83999613D01*
X167355273Y-84021557D01*
X167360937Y-84044166D01*
X167364356Y-84067221D01*
X167365500Y-84090500D01*
X167365500Y-84565500D01*
X167364356Y-84588779D01*
X167360937Y-84611834D01*
X167355273Y-84634443D01*
X167347421Y-84656387D01*
X167337456Y-84677457D01*
X167325474Y-84697448D01*
X167311590Y-84716168D01*
X167295938Y-84733438D01*
X167278668Y-84749090D01*
X167259948Y-84762974D01*
X167239957Y-84774956D01*
X167218887Y-84784921D01*
X167196943Y-84792773D01*
X167174334Y-84798437D01*
X167151279Y-84801856D01*
X167128000Y-84803000D01*
X166628000Y-84803000D01*
X166604721Y-84801856D01*
X166581666Y-84798437D01*
X166559057Y-84792773D01*
X166537113Y-84784921D01*
X166516043Y-84774956D01*
X166496052Y-84762974D01*
X166477332Y-84749090D01*
X166460062Y-84733438D01*
X166444410Y-84716168D01*
X166430526Y-84697448D01*
X166418544Y-84677457D01*
X166408579Y-84656387D01*
X166400727Y-84634443D01*
X166395063Y-84611834D01*
X166391644Y-84588779D01*
X166390500Y-84565500D01*
X166390500Y-84090500D01*
X166391644Y-84067221D01*
X166395063Y-84044166D01*
X166400727Y-84021557D01*
X166408579Y-83999613D01*
X166418544Y-83978543D01*
X166430526Y-83958552D01*
X166444410Y-83939832D01*
X166460062Y-83922562D01*
X166477332Y-83906910D01*
X166496052Y-83893026D01*
X166516043Y-83881044D01*
X166537113Y-83871079D01*
X166559057Y-83863227D01*
X166581666Y-83857563D01*
X166604721Y-83854144D01*
X166628000Y-83853000D01*
X167128000Y-83853000D01*
X167151279Y-83854144D01*
X167151279Y-83854144D01*
G37*
D15*
X166878000Y-84328000D03*
D14*
G36*
X165326279Y-83854144D02*
G01*
X165349334Y-83857563D01*
X165371943Y-83863227D01*
X165393887Y-83871079D01*
X165414957Y-83881044D01*
X165434948Y-83893026D01*
X165453668Y-83906910D01*
X165470938Y-83922562D01*
X165486590Y-83939832D01*
X165500474Y-83958552D01*
X165512456Y-83978543D01*
X165522421Y-83999613D01*
X165530273Y-84021557D01*
X165535937Y-84044166D01*
X165539356Y-84067221D01*
X165540500Y-84090500D01*
X165540500Y-84565500D01*
X165539356Y-84588779D01*
X165535937Y-84611834D01*
X165530273Y-84634443D01*
X165522421Y-84656387D01*
X165512456Y-84677457D01*
X165500474Y-84697448D01*
X165486590Y-84716168D01*
X165470938Y-84733438D01*
X165453668Y-84749090D01*
X165434948Y-84762974D01*
X165414957Y-84774956D01*
X165393887Y-84784921D01*
X165371943Y-84792773D01*
X165349334Y-84798437D01*
X165326279Y-84801856D01*
X165303000Y-84803000D01*
X164803000Y-84803000D01*
X164779721Y-84801856D01*
X164756666Y-84798437D01*
X164734057Y-84792773D01*
X164712113Y-84784921D01*
X164691043Y-84774956D01*
X164671052Y-84762974D01*
X164652332Y-84749090D01*
X164635062Y-84733438D01*
X164619410Y-84716168D01*
X164605526Y-84697448D01*
X164593544Y-84677457D01*
X164583579Y-84656387D01*
X164575727Y-84634443D01*
X164570063Y-84611834D01*
X164566644Y-84588779D01*
X164565500Y-84565500D01*
X164565500Y-84090500D01*
X164566644Y-84067221D01*
X164570063Y-84044166D01*
X164575727Y-84021557D01*
X164583579Y-83999613D01*
X164593544Y-83978543D01*
X164605526Y-83958552D01*
X164619410Y-83939832D01*
X164635062Y-83922562D01*
X164652332Y-83906910D01*
X164671052Y-83893026D01*
X164691043Y-83881044D01*
X164712113Y-83871079D01*
X164734057Y-83863227D01*
X164756666Y-83857563D01*
X164779721Y-83854144D01*
X164803000Y-83853000D01*
X165303000Y-83853000D01*
X165326279Y-83854144D01*
X165326279Y-83854144D01*
G37*
D15*
X165053000Y-84328000D03*
D14*
G36*
X166947279Y-86902144D02*
G01*
X166970334Y-86905563D01*
X166992943Y-86911227D01*
X167014887Y-86919079D01*
X167035957Y-86929044D01*
X167055948Y-86941026D01*
X167074668Y-86954910D01*
X167091938Y-86970562D01*
X167107590Y-86987832D01*
X167121474Y-87006552D01*
X167133456Y-87026543D01*
X167143421Y-87047613D01*
X167151273Y-87069557D01*
X167156937Y-87092166D01*
X167160356Y-87115221D01*
X167161500Y-87138500D01*
X167161500Y-87613500D01*
X167160356Y-87636779D01*
X167156937Y-87659834D01*
X167151273Y-87682443D01*
X167143421Y-87704387D01*
X167133456Y-87725457D01*
X167121474Y-87745448D01*
X167107590Y-87764168D01*
X167091938Y-87781438D01*
X167074668Y-87797090D01*
X167055948Y-87810974D01*
X167035957Y-87822956D01*
X167014887Y-87832921D01*
X166992943Y-87840773D01*
X166970334Y-87846437D01*
X166947279Y-87849856D01*
X166924000Y-87851000D01*
X166324000Y-87851000D01*
X166300721Y-87849856D01*
X166277666Y-87846437D01*
X166255057Y-87840773D01*
X166233113Y-87832921D01*
X166212043Y-87822956D01*
X166192052Y-87810974D01*
X166173332Y-87797090D01*
X166156062Y-87781438D01*
X166140410Y-87764168D01*
X166126526Y-87745448D01*
X166114544Y-87725457D01*
X166104579Y-87704387D01*
X166096727Y-87682443D01*
X166091063Y-87659834D01*
X166087644Y-87636779D01*
X166086500Y-87613500D01*
X166086500Y-87138500D01*
X166087644Y-87115221D01*
X166091063Y-87092166D01*
X166096727Y-87069557D01*
X166104579Y-87047613D01*
X166114544Y-87026543D01*
X166126526Y-87006552D01*
X166140410Y-86987832D01*
X166156062Y-86970562D01*
X166173332Y-86954910D01*
X166192052Y-86941026D01*
X166212043Y-86929044D01*
X166233113Y-86919079D01*
X166255057Y-86911227D01*
X166277666Y-86905563D01*
X166300721Y-86902144D01*
X166324000Y-86901000D01*
X166924000Y-86901000D01*
X166947279Y-86902144D01*
X166947279Y-86902144D01*
G37*
D15*
X166624000Y-87376000D03*
D14*
G36*
X168672279Y-86902144D02*
G01*
X168695334Y-86905563D01*
X168717943Y-86911227D01*
X168739887Y-86919079D01*
X168760957Y-86929044D01*
X168780948Y-86941026D01*
X168799668Y-86954910D01*
X168816938Y-86970562D01*
X168832590Y-86987832D01*
X168846474Y-87006552D01*
X168858456Y-87026543D01*
X168868421Y-87047613D01*
X168876273Y-87069557D01*
X168881937Y-87092166D01*
X168885356Y-87115221D01*
X168886500Y-87138500D01*
X168886500Y-87613500D01*
X168885356Y-87636779D01*
X168881937Y-87659834D01*
X168876273Y-87682443D01*
X168868421Y-87704387D01*
X168858456Y-87725457D01*
X168846474Y-87745448D01*
X168832590Y-87764168D01*
X168816938Y-87781438D01*
X168799668Y-87797090D01*
X168780948Y-87810974D01*
X168760957Y-87822956D01*
X168739887Y-87832921D01*
X168717943Y-87840773D01*
X168695334Y-87846437D01*
X168672279Y-87849856D01*
X168649000Y-87851000D01*
X168049000Y-87851000D01*
X168025721Y-87849856D01*
X168002666Y-87846437D01*
X167980057Y-87840773D01*
X167958113Y-87832921D01*
X167937043Y-87822956D01*
X167917052Y-87810974D01*
X167898332Y-87797090D01*
X167881062Y-87781438D01*
X167865410Y-87764168D01*
X167851526Y-87745448D01*
X167839544Y-87725457D01*
X167829579Y-87704387D01*
X167821727Y-87682443D01*
X167816063Y-87659834D01*
X167812644Y-87636779D01*
X167811500Y-87613500D01*
X167811500Y-87138500D01*
X167812644Y-87115221D01*
X167816063Y-87092166D01*
X167821727Y-87069557D01*
X167829579Y-87047613D01*
X167839544Y-87026543D01*
X167851526Y-87006552D01*
X167865410Y-86987832D01*
X167881062Y-86970562D01*
X167898332Y-86954910D01*
X167917052Y-86941026D01*
X167937043Y-86929044D01*
X167958113Y-86919079D01*
X167980057Y-86911227D01*
X168002666Y-86905563D01*
X168025721Y-86902144D01*
X168049000Y-86901000D01*
X168649000Y-86901000D01*
X168672279Y-86902144D01*
X168672279Y-86902144D01*
G37*
D15*
X168349000Y-87376000D03*
M02*
