G04 #@! TF.GenerationSoftware,KiCad,Pcbnew,(5.1.4)-1*
G04 #@! TF.CreationDate,2020-11-28T02:07:29-06:00*
G04 #@! TF.ProjectId,NO_Sensor_Breakout,4e4f5f53-656e-4736-9f72-5f427265616b,rev?*
G04 #@! TF.SameCoordinates,Original*
G04 #@! TF.FileFunction,Legend,Bot*
G04 #@! TF.FilePolarity,Positive*
%FSLAX46Y46*%
G04 Gerber Fmt 4.6, Leading zero omitted, Abs format (unit mm)*
G04 Created by KiCad (PCBNEW (5.1.4)-1) date 2020-11-28 02:07:29*
%MOMM*%
%LPD*%
G04 APERTURE LIST*
%ADD10C,0.150000*%
%ADD11C,0.010000*%
G04 APERTURE END LIST*
D10*
X159361238Y-84018285D02*
X159313619Y-83875428D01*
X159313619Y-83637333D01*
X159361238Y-83542095D01*
X159408857Y-83494476D01*
X159504095Y-83446857D01*
X159599333Y-83446857D01*
X159694571Y-83494476D01*
X159742190Y-83542095D01*
X159789809Y-83637333D01*
X159837428Y-83827809D01*
X159885047Y-83923047D01*
X159932666Y-83970666D01*
X160027904Y-84018285D01*
X160123142Y-84018285D01*
X160218380Y-83970666D01*
X160266000Y-83923047D01*
X160313619Y-83827809D01*
X160313619Y-83589714D01*
X160266000Y-83446857D01*
X159313619Y-83018285D02*
X160313619Y-83018285D01*
X160313619Y-82780190D01*
X160266000Y-82637333D01*
X160170761Y-82542095D01*
X160075523Y-82494476D01*
X159885047Y-82446857D01*
X159742190Y-82446857D01*
X159551714Y-82494476D01*
X159456476Y-82542095D01*
X159361238Y-82637333D01*
X159313619Y-82780190D01*
X159313619Y-83018285D01*
X159599333Y-82065904D02*
X159599333Y-81589714D01*
X159313619Y-82161142D02*
X160313619Y-81827809D01*
X159313619Y-81494476D01*
X159361238Y-87042476D02*
X159313619Y-86899619D01*
X159313619Y-86661523D01*
X159361238Y-86566285D01*
X159408857Y-86518666D01*
X159504095Y-86471047D01*
X159599333Y-86471047D01*
X159694571Y-86518666D01*
X159742190Y-86566285D01*
X159789809Y-86661523D01*
X159837428Y-86852000D01*
X159885047Y-86947238D01*
X159932666Y-86994857D01*
X160027904Y-87042476D01*
X160123142Y-87042476D01*
X160218380Y-86994857D01*
X160266000Y-86947238D01*
X160313619Y-86852000D01*
X160313619Y-86613904D01*
X160266000Y-86471047D01*
X159408857Y-85471047D02*
X159361238Y-85518666D01*
X159313619Y-85661523D01*
X159313619Y-85756761D01*
X159361238Y-85899619D01*
X159456476Y-85994857D01*
X159551714Y-86042476D01*
X159742190Y-86090095D01*
X159885047Y-86090095D01*
X160075523Y-86042476D01*
X160170761Y-85994857D01*
X160266000Y-85899619D01*
X160313619Y-85756761D01*
X160313619Y-85661523D01*
X160266000Y-85518666D01*
X160218380Y-85471047D01*
X159313619Y-84566285D02*
X159313619Y-85042476D01*
X160313619Y-85042476D01*
X159837428Y-88011047D02*
X159837428Y-88772952D01*
X160146952Y-91003428D02*
X159385047Y-91003428D01*
X159766000Y-91384380D02*
X159766000Y-90622476D01*
D11*
G36*
X173724988Y-81657492D02*
G01*
X173726952Y-81659643D01*
X173773725Y-81680637D01*
X173803152Y-81679028D01*
X173828888Y-81668254D01*
X173820627Y-81663946D01*
X173772332Y-81653359D01*
X173744427Y-81644561D01*
X173713960Y-81637952D01*
X173724988Y-81657492D01*
X173724988Y-81657492D01*
G37*
X173724988Y-81657492D02*
X173726952Y-81659643D01*
X173773725Y-81680637D01*
X173803152Y-81679028D01*
X173828888Y-81668254D01*
X173820627Y-81663946D01*
X173772332Y-81653359D01*
X173744427Y-81644561D01*
X173713960Y-81637952D01*
X173724988Y-81657492D01*
G36*
X173875700Y-81661000D02*
G01*
X173888400Y-81648300D01*
X173875700Y-81635600D01*
X173863000Y-81648300D01*
X173875700Y-81661000D01*
X173875700Y-81661000D01*
G37*
X173875700Y-81661000D02*
X173888400Y-81648300D01*
X173875700Y-81635600D01*
X173863000Y-81648300D01*
X173875700Y-81661000D01*
G36*
X174104300Y-81407000D02*
G01*
X174117000Y-81394300D01*
X174104300Y-81381600D01*
X174091600Y-81394300D01*
X174104300Y-81407000D01*
X174104300Y-81407000D01*
G37*
X174104300Y-81407000D02*
X174117000Y-81394300D01*
X174104300Y-81381600D01*
X174091600Y-81394300D01*
X174104300Y-81407000D01*
G36*
X174155100Y-81432400D02*
G01*
X174167800Y-81419700D01*
X174155100Y-81407000D01*
X174142400Y-81419700D01*
X174155100Y-81432400D01*
X174155100Y-81432400D01*
G37*
X174155100Y-81432400D02*
X174167800Y-81419700D01*
X174155100Y-81407000D01*
X174142400Y-81419700D01*
X174155100Y-81432400D01*
G36*
X174205900Y-81432400D02*
G01*
X174218600Y-81419700D01*
X174205900Y-81407000D01*
X174193200Y-81419700D01*
X174205900Y-81432400D01*
X174205900Y-81432400D01*
G37*
X174205900Y-81432400D02*
X174218600Y-81419700D01*
X174205900Y-81407000D01*
X174193200Y-81419700D01*
X174205900Y-81432400D01*
G36*
X174104300Y-83769200D02*
G01*
X174117000Y-83756500D01*
X174104300Y-83743800D01*
X174091600Y-83756500D01*
X174104300Y-83769200D01*
X174104300Y-83769200D01*
G37*
X174104300Y-83769200D02*
X174117000Y-83756500D01*
X174104300Y-83743800D01*
X174091600Y-83756500D01*
X174104300Y-83769200D01*
G36*
X171869100Y-80848200D02*
G01*
X171881800Y-80835500D01*
X171869100Y-80822800D01*
X171856400Y-80835500D01*
X171869100Y-80848200D01*
X171869100Y-80848200D01*
G37*
X171869100Y-80848200D02*
X171881800Y-80835500D01*
X171869100Y-80822800D01*
X171856400Y-80835500D01*
X171869100Y-80848200D01*
G36*
X171996100Y-80848200D02*
G01*
X172008800Y-80835500D01*
X171996100Y-80822800D01*
X171983400Y-80835500D01*
X171996100Y-80848200D01*
X171996100Y-80848200D01*
G37*
X171996100Y-80848200D02*
X172008800Y-80835500D01*
X171996100Y-80822800D01*
X171983400Y-80835500D01*
X171996100Y-80848200D01*
G36*
X174399970Y-83070700D02*
G01*
X174421800Y-83019900D01*
X174440596Y-82960559D01*
X174445025Y-82931000D01*
X174442703Y-82905717D01*
X174425997Y-82924567D01*
X174421800Y-82931000D01*
X174401320Y-82988669D01*
X174398574Y-83019900D01*
X174399970Y-83070700D01*
X174399970Y-83070700D01*
G37*
X174399970Y-83070700D02*
X174421800Y-83019900D01*
X174440596Y-82960559D01*
X174445025Y-82931000D01*
X174442703Y-82905717D01*
X174425997Y-82924567D01*
X174421800Y-82931000D01*
X174401320Y-82988669D01*
X174398574Y-83019900D01*
X174399970Y-83070700D01*
G36*
X174531866Y-83024133D02*
G01*
X174546966Y-83020646D01*
X174548800Y-83007200D01*
X174539506Y-82986292D01*
X174531866Y-82990266D01*
X174528826Y-83020410D01*
X174531866Y-83024133D01*
X174531866Y-83024133D01*
G37*
X174531866Y-83024133D02*
X174546966Y-83020646D01*
X174548800Y-83007200D01*
X174539506Y-82986292D01*
X174531866Y-82990266D01*
X174528826Y-83020410D01*
X174531866Y-83024133D01*
G36*
X174790100Y-81940400D02*
G01*
X174802800Y-81927700D01*
X174790100Y-81915000D01*
X174777400Y-81927700D01*
X174790100Y-81940400D01*
X174790100Y-81940400D01*
G37*
X174790100Y-81940400D02*
X174802800Y-81927700D01*
X174790100Y-81915000D01*
X174777400Y-81927700D01*
X174790100Y-81940400D01*
G36*
X174836666Y-83709933D02*
G01*
X174866810Y-83712973D01*
X174870533Y-83709933D01*
X174867046Y-83694833D01*
X174853600Y-83693000D01*
X174832692Y-83702293D01*
X174836666Y-83709933D01*
X174836666Y-83709933D01*
G37*
X174836666Y-83709933D02*
X174866810Y-83712973D01*
X174870533Y-83709933D01*
X174867046Y-83694833D01*
X174853600Y-83693000D01*
X174832692Y-83702293D01*
X174836666Y-83709933D01*
G36*
X174686383Y-84508673D02*
G01*
X174740655Y-84542962D01*
X174781406Y-84556035D01*
X174787792Y-84543000D01*
X174758582Y-84511824D01*
X174752000Y-84506606D01*
X174710963Y-84467436D01*
X174710134Y-84438110D01*
X174719561Y-84426580D01*
X174756847Y-84408264D01*
X174811974Y-84423381D01*
X174814479Y-84424513D01*
X174899479Y-84439556D01*
X174935818Y-84430514D01*
X174970017Y-84414753D01*
X174961598Y-84407966D01*
X174912249Y-84405810D01*
X174841617Y-84396481D01*
X174813576Y-84376152D01*
X174822810Y-84350722D01*
X174864004Y-84326093D01*
X174931842Y-84308164D01*
X175005223Y-84302600D01*
X175091256Y-84291790D01*
X175168205Y-84265200D01*
X175178343Y-84259438D01*
X175247300Y-84216276D01*
X175185816Y-84284738D01*
X175144458Y-84339574D01*
X175138922Y-84365115D01*
X175164792Y-84355818D01*
X175209724Y-84314741D01*
X175248504Y-84263323D01*
X175273498Y-84212048D01*
X175281002Y-84173481D01*
X175267309Y-84160187D01*
X175253726Y-84165518D01*
X175211184Y-84192418D01*
X175153280Y-84231428D01*
X175152782Y-84231772D01*
X175056619Y-84269730D01*
X174972128Y-84273842D01*
X174900811Y-84275370D01*
X174842302Y-84293995D01*
X174776482Y-84337669D01*
X174743023Y-84364408D01*
X174625454Y-84460746D01*
X174686383Y-84508673D01*
X174686383Y-84508673D01*
G37*
X174686383Y-84508673D02*
X174740655Y-84542962D01*
X174781406Y-84556035D01*
X174787792Y-84543000D01*
X174758582Y-84511824D01*
X174752000Y-84506606D01*
X174710963Y-84467436D01*
X174710134Y-84438110D01*
X174719561Y-84426580D01*
X174756847Y-84408264D01*
X174811974Y-84423381D01*
X174814479Y-84424513D01*
X174899479Y-84439556D01*
X174935818Y-84430514D01*
X174970017Y-84414753D01*
X174961598Y-84407966D01*
X174912249Y-84405810D01*
X174841617Y-84396481D01*
X174813576Y-84376152D01*
X174822810Y-84350722D01*
X174864004Y-84326093D01*
X174931842Y-84308164D01*
X175005223Y-84302600D01*
X175091256Y-84291790D01*
X175168205Y-84265200D01*
X175178343Y-84259438D01*
X175247300Y-84216276D01*
X175185816Y-84284738D01*
X175144458Y-84339574D01*
X175138922Y-84365115D01*
X175164792Y-84355818D01*
X175209724Y-84314741D01*
X175248504Y-84263323D01*
X175273498Y-84212048D01*
X175281002Y-84173481D01*
X175267309Y-84160187D01*
X175253726Y-84165518D01*
X175211184Y-84192418D01*
X175153280Y-84231428D01*
X175152782Y-84231772D01*
X175056619Y-84269730D01*
X174972128Y-84273842D01*
X174900811Y-84275370D01*
X174842302Y-84293995D01*
X174776482Y-84337669D01*
X174743023Y-84364408D01*
X174625454Y-84460746D01*
X174686383Y-84508673D01*
G36*
X175856900Y-82626200D02*
G01*
X175869600Y-82613500D01*
X175856900Y-82600800D01*
X175844200Y-82613500D01*
X175856900Y-82626200D01*
X175856900Y-82626200D01*
G37*
X175856900Y-82626200D02*
X175869600Y-82613500D01*
X175856900Y-82600800D01*
X175844200Y-82613500D01*
X175856900Y-82626200D01*
G36*
X175856900Y-82550000D02*
G01*
X175869600Y-82537300D01*
X175856900Y-82524600D01*
X175844200Y-82537300D01*
X175856900Y-82550000D01*
X175856900Y-82550000D01*
G37*
X175856900Y-82550000D02*
X175869600Y-82537300D01*
X175856900Y-82524600D01*
X175844200Y-82537300D01*
X175856900Y-82550000D01*
G36*
X175907700Y-82880200D02*
G01*
X175920400Y-82867500D01*
X175907700Y-82854800D01*
X175895000Y-82867500D01*
X175907700Y-82880200D01*
X175907700Y-82880200D01*
G37*
X175907700Y-82880200D02*
X175920400Y-82867500D01*
X175907700Y-82854800D01*
X175895000Y-82867500D01*
X175907700Y-82880200D01*
G36*
X175933100Y-82499200D02*
G01*
X175945800Y-82486500D01*
X175933100Y-82473800D01*
X175920400Y-82486500D01*
X175933100Y-82499200D01*
X175933100Y-82499200D01*
G37*
X175933100Y-82499200D02*
X175945800Y-82486500D01*
X175933100Y-82473800D01*
X175920400Y-82486500D01*
X175933100Y-82499200D01*
G36*
X175788151Y-82733337D02*
G01*
X175805328Y-82828017D01*
X175827109Y-82912765D01*
X175850121Y-82970116D01*
X175857500Y-82980143D01*
X175890612Y-83002837D01*
X175930689Y-82995536D01*
X175959717Y-82981148D01*
X176018552Y-82937148D01*
X176053525Y-82893905D01*
X176069907Y-82858800D01*
X176056794Y-82862623D01*
X176039971Y-82876036D01*
X175995736Y-82896796D01*
X175972603Y-82893767D01*
X175956943Y-82896550D01*
X175961508Y-82916980D01*
X175963413Y-82950418D01*
X175933502Y-82948818D01*
X175886860Y-82919733D01*
X175876880Y-82903576D01*
X175876880Y-82935094D01*
X175891075Y-82941274D01*
X175918343Y-82966849D01*
X175912749Y-82981552D01*
X175909199Y-82981800D01*
X175887715Y-82963758D01*
X175879874Y-82952475D01*
X175876880Y-82935094D01*
X175876880Y-82903576D01*
X175862967Y-82881050D01*
X175842727Y-82812410D01*
X175827606Y-82727545D01*
X175819067Y-82640188D01*
X175818574Y-82564070D01*
X175827590Y-82512925D01*
X175842032Y-82499200D01*
X175861598Y-82485512D01*
X175858544Y-82476461D01*
X175864807Y-82449202D01*
X175879529Y-82440277D01*
X175926553Y-82445108D01*
X175989102Y-82478546D01*
X176049827Y-82530472D01*
X176065642Y-82548834D01*
X176090667Y-82571375D01*
X176097392Y-82566061D01*
X176081218Y-82537233D01*
X176038737Y-82486455D01*
X175999588Y-82445411D01*
X175921790Y-82376332D01*
X175866801Y-82350228D01*
X175830456Y-82367027D01*
X175808589Y-82426655D01*
X175805850Y-82442050D01*
X175793147Y-82518081D01*
X175782152Y-82578659D01*
X175781079Y-82584037D01*
X175778944Y-82646189D01*
X175788151Y-82733337D01*
X175788151Y-82733337D01*
G37*
X175788151Y-82733337D02*
X175805328Y-82828017D01*
X175827109Y-82912765D01*
X175850121Y-82970116D01*
X175857500Y-82980143D01*
X175890612Y-83002837D01*
X175930689Y-82995536D01*
X175959717Y-82981148D01*
X176018552Y-82937148D01*
X176053525Y-82893905D01*
X176069907Y-82858800D01*
X176056794Y-82862623D01*
X176039971Y-82876036D01*
X175995736Y-82896796D01*
X175972603Y-82893767D01*
X175956943Y-82896550D01*
X175961508Y-82916980D01*
X175963413Y-82950418D01*
X175933502Y-82948818D01*
X175886860Y-82919733D01*
X175876880Y-82903576D01*
X175876880Y-82935094D01*
X175891075Y-82941274D01*
X175918343Y-82966849D01*
X175912749Y-82981552D01*
X175909199Y-82981800D01*
X175887715Y-82963758D01*
X175879874Y-82952475D01*
X175876880Y-82935094D01*
X175876880Y-82903576D01*
X175862967Y-82881050D01*
X175842727Y-82812410D01*
X175827606Y-82727545D01*
X175819067Y-82640188D01*
X175818574Y-82564070D01*
X175827590Y-82512925D01*
X175842032Y-82499200D01*
X175861598Y-82485512D01*
X175858544Y-82476461D01*
X175864807Y-82449202D01*
X175879529Y-82440277D01*
X175926553Y-82445108D01*
X175989102Y-82478546D01*
X176049827Y-82530472D01*
X176065642Y-82548834D01*
X176090667Y-82571375D01*
X176097392Y-82566061D01*
X176081218Y-82537233D01*
X176038737Y-82486455D01*
X175999588Y-82445411D01*
X175921790Y-82376332D01*
X175866801Y-82350228D01*
X175830456Y-82367027D01*
X175808589Y-82426655D01*
X175805850Y-82442050D01*
X175793147Y-82518081D01*
X175782152Y-82578659D01*
X175781079Y-82584037D01*
X175778944Y-82646189D01*
X175788151Y-82733337D01*
G36*
X176554132Y-82338075D02*
G01*
X176607789Y-82346324D01*
X176630100Y-82346800D01*
X176700576Y-82345114D01*
X176729014Y-82337774D01*
X176724131Y-82321355D01*
X176716266Y-82312933D01*
X176676175Y-82298513D01*
X176616188Y-82297309D01*
X176562379Y-82308048D01*
X176542700Y-82321400D01*
X176554132Y-82338075D01*
X176554132Y-82338075D01*
G37*
X176554132Y-82338075D02*
X176607789Y-82346324D01*
X176630100Y-82346800D01*
X176700576Y-82345114D01*
X176729014Y-82337774D01*
X176724131Y-82321355D01*
X176716266Y-82312933D01*
X176676175Y-82298513D01*
X176616188Y-82297309D01*
X176562379Y-82308048D01*
X176542700Y-82321400D01*
X176554132Y-82338075D01*
G36*
X171780543Y-82670972D02*
G01*
X171781596Y-82958874D01*
X171783394Y-83199632D01*
X171785973Y-83395071D01*
X171789368Y-83547017D01*
X171793613Y-83657295D01*
X171798744Y-83727732D01*
X171804796Y-83760152D01*
X171807735Y-83762850D01*
X171828480Y-83781999D01*
X171859920Y-83838549D01*
X171896413Y-83921797D01*
X171909742Y-83956349D01*
X171951043Y-84059453D01*
X171993297Y-84152361D01*
X172028628Y-84218001D01*
X172034606Y-84226970D01*
X172068562Y-84277575D01*
X172084771Y-84307470D01*
X172085000Y-84308849D01*
X172062763Y-84321341D01*
X172004777Y-84342912D01*
X171932600Y-84366100D01*
X171780200Y-84412243D01*
X171780200Y-84570223D01*
X171782892Y-84661536D01*
X171793857Y-84717193D01*
X171817423Y-84752185D01*
X171837349Y-84768069D01*
X171894500Y-84807935D01*
X171837350Y-84809267D01*
X171814764Y-84811404D01*
X171799084Y-84821826D01*
X171789049Y-84848399D01*
X171783400Y-84898990D01*
X171780877Y-84981466D01*
X171780221Y-85103695D01*
X171780200Y-85166200D01*
X171780200Y-85521800D01*
X172129690Y-85521800D01*
X172270162Y-85521267D01*
X172368473Y-85518900D01*
X172433257Y-85513539D01*
X172473149Y-85504030D01*
X172496782Y-85489213D01*
X172511097Y-85470691D01*
X172543015Y-85419583D01*
X172643195Y-85470691D01*
X172662711Y-85480051D01*
X172684385Y-85488193D01*
X172711695Y-85495202D01*
X172748120Y-85501162D01*
X172797140Y-85506159D01*
X172862234Y-85510277D01*
X172946880Y-85513601D01*
X173054558Y-85516216D01*
X173188746Y-85518207D01*
X173352923Y-85519659D01*
X173550570Y-85520656D01*
X173785163Y-85521284D01*
X174060184Y-85521627D01*
X174379109Y-85521771D01*
X174738288Y-85521800D01*
X176733200Y-85521800D01*
X176730954Y-83781900D01*
X176680012Y-83878432D01*
X176640011Y-83941820D01*
X176601688Y-83983407D01*
X176591743Y-83989288D01*
X176529733Y-83997884D01*
X176440198Y-83993224D01*
X176341066Y-83978295D01*
X176250267Y-83956087D01*
X176185730Y-83929590D01*
X176172135Y-83919335D01*
X176132035Y-83871556D01*
X176134002Y-83844829D01*
X176181259Y-83833893D01*
X176225200Y-83832700D01*
X176288839Y-83836927D01*
X176324219Y-83847488D01*
X176326800Y-83851750D01*
X176305073Y-83866204D01*
X176264799Y-83870800D01*
X176211017Y-83880165D01*
X176187100Y-83896200D01*
X176196396Y-83914753D01*
X176240333Y-83921600D01*
X176319316Y-83896540D01*
X176402946Y-83822117D01*
X176490315Y-83699462D01*
X176580517Y-83529706D01*
X176614722Y-83454513D01*
X176661693Y-83343413D01*
X176699654Y-83246294D01*
X176724455Y-83174269D01*
X176732096Y-83140041D01*
X176722985Y-83141576D01*
X176699505Y-83182506D01*
X176665866Y-83254945D01*
X176647055Y-83299300D01*
X176594841Y-83417392D01*
X176535257Y-83539729D01*
X176480308Y-83641781D01*
X176475046Y-83650741D01*
X176386974Y-83798983D01*
X176103717Y-83803141D01*
X175820461Y-83807300D01*
X175939325Y-83686650D01*
X175995199Y-83626504D01*
X176028904Y-83583274D01*
X176033412Y-83566022D01*
X176032950Y-83566000D01*
X176004720Y-83583019D01*
X175951356Y-83628383D01*
X175882654Y-83693552D01*
X175856104Y-83720165D01*
X175767204Y-83806357D01*
X175673155Y-83890888D01*
X175592671Y-83957016D01*
X175584598Y-83963079D01*
X175492374Y-84046223D01*
X175443775Y-84128963D01*
X175440099Y-84140909D01*
X175397923Y-84232287D01*
X175324645Y-84335015D01*
X175233074Y-84434895D01*
X175136016Y-84517728D01*
X175058031Y-84564458D01*
X174962074Y-84594896D01*
X174853038Y-84610741D01*
X174742043Y-84612903D01*
X174640209Y-84602295D01*
X174558655Y-84579826D01*
X174508500Y-84546409D01*
X174498000Y-84518561D01*
X174514283Y-84479622D01*
X174556389Y-84419673D01*
X174599600Y-84369041D01*
X174654000Y-84307487D01*
X174690871Y-84260914D01*
X174701200Y-84242609D01*
X174680255Y-84228560D01*
X174631312Y-84226790D01*
X174575202Y-84235580D01*
X174532758Y-84253207D01*
X174528480Y-84256879D01*
X174503311Y-84274551D01*
X174498000Y-84256879D01*
X174514608Y-84228293D01*
X174523400Y-84226400D01*
X174548061Y-84207071D01*
X174548800Y-84201000D01*
X174525584Y-84187574D01*
X174464578Y-84178436D01*
X174391320Y-84175600D01*
X174303998Y-84172526D01*
X174265010Y-84162270D01*
X174274570Y-84143278D01*
X174332891Y-84113997D01*
X174403579Y-84086272D01*
X174495124Y-84047102D01*
X174537147Y-84015893D01*
X174530199Y-83992043D01*
X174500555Y-83980427D01*
X174457238Y-83949305D01*
X174447294Y-83899587D01*
X174447389Y-83832700D01*
X174496036Y-83912478D01*
X174543405Y-83980957D01*
X174583225Y-84005590D01*
X174628913Y-83988803D01*
X174680236Y-83945769D01*
X174730354Y-83898404D01*
X174745083Y-83878046D01*
X174726481Y-83877381D01*
X174697620Y-83884011D01*
X174640810Y-83887202D01*
X174613571Y-83872858D01*
X174622387Y-83853275D01*
X174677878Y-83845488D01*
X174687277Y-83845400D01*
X174778702Y-83831475D01*
X174880623Y-83795515D01*
X174973703Y-83746236D01*
X175038602Y-83692358D01*
X175044873Y-83684187D01*
X175065360Y-83640985D01*
X175078826Y-83588535D01*
X175083269Y-83542657D01*
X175076681Y-83519169D01*
X175065211Y-83523722D01*
X175036012Y-83522270D01*
X175004232Y-83500900D01*
X174964493Y-83478496D01*
X174945301Y-83485267D01*
X174949517Y-83518970D01*
X174968179Y-83540832D01*
X175003317Y-83595284D01*
X174991291Y-83654900D01*
X174934058Y-83711897D01*
X174923450Y-83718678D01*
X174855926Y-83756823D01*
X174821736Y-83765693D01*
X174813012Y-83745732D01*
X174815804Y-83724750D01*
X174824449Y-83666945D01*
X174826256Y-83647050D01*
X174840067Y-83624510D01*
X174849366Y-83626883D01*
X174868249Y-83619561D01*
X174870533Y-83605404D01*
X174853379Y-83581180D01*
X174839235Y-83582853D01*
X174801681Y-83580708D01*
X174788690Y-83546132D01*
X174803780Y-83492930D01*
X174812520Y-83478082D01*
X174834992Y-83439089D01*
X174828358Y-83418900D01*
X174783921Y-83406457D01*
X174751761Y-83400859D01*
X174663258Y-83394068D01*
X174579629Y-83399889D01*
X174571408Y-83401513D01*
X174491313Y-83419104D01*
X174509460Y-83321102D01*
X174534911Y-83247564D01*
X174582147Y-83157955D01*
X174627103Y-83090839D01*
X174689496Y-83004378D01*
X174719402Y-82954481D01*
X174716814Y-82941793D01*
X174681725Y-82966958D01*
X174627893Y-83017074D01*
X174563601Y-83073117D01*
X174526860Y-83088366D01*
X174517742Y-83079379D01*
X174504060Y-83078754D01*
X174483200Y-83117510D01*
X174474454Y-83141533D01*
X174445945Y-83206029D01*
X174414724Y-83227220D01*
X174408551Y-83226410D01*
X174408551Y-83291016D01*
X174418744Y-83307958D01*
X174414207Y-83359834D01*
X174409364Y-83390727D01*
X174394316Y-83463188D01*
X174377964Y-83513365D01*
X174372345Y-83522670D01*
X174349133Y-83526305D01*
X174349133Y-83589828D01*
X174389676Y-83592656D01*
X174387510Y-83617234D01*
X174358300Y-83651271D01*
X174324874Y-83694020D01*
X174327677Y-83714510D01*
X174356961Y-83709728D01*
X174380808Y-83712816D01*
X174394756Y-83750854D01*
X174401411Y-83814960D01*
X174405471Y-83886463D01*
X174407056Y-83932606D01*
X174406691Y-83940941D01*
X174384198Y-83934640D01*
X174326732Y-83911969D01*
X174245626Y-83877453D01*
X174224772Y-83868295D01*
X174111553Y-83811613D01*
X174047295Y-83763040D01*
X174031556Y-83736595D01*
X174028016Y-83673883D01*
X174061003Y-83645041D01*
X174087563Y-83642200D01*
X174136263Y-83636034D01*
X174212903Y-83620265D01*
X174263864Y-83607820D01*
X174349133Y-83589828D01*
X174349133Y-83526305D01*
X174341368Y-83527521D01*
X174276433Y-83524785D01*
X174193470Y-83516449D01*
X174108411Y-83504498D01*
X174037186Y-83490920D01*
X173995727Y-83477702D01*
X173992425Y-83475291D01*
X173994314Y-83452419D01*
X174041044Y-83422644D01*
X174134739Y-83384764D01*
X174180500Y-83368869D01*
X174268873Y-83338561D01*
X174343094Y-83312211D01*
X174380228Y-83298218D01*
X174408551Y-83291016D01*
X174408551Y-83226410D01*
X174400455Y-83225347D01*
X174355954Y-83213627D01*
X174278028Y-83194332D01*
X174182721Y-83171428D01*
X174172873Y-83169097D01*
X174078648Y-83145969D01*
X174023910Y-83127477D01*
X173998658Y-83106779D01*
X173992894Y-83077032D01*
X173995073Y-83047420D01*
X174002995Y-83004484D01*
X174024157Y-82976037D01*
X174070218Y-82953727D01*
X174152838Y-82929202D01*
X174164523Y-82926047D01*
X174269894Y-82895566D01*
X174325724Y-82874245D01*
X174331943Y-82862267D01*
X174288481Y-82859815D01*
X174195270Y-82867074D01*
X174186497Y-82867991D01*
X174096210Y-82876577D01*
X174046437Y-82876970D01*
X174027284Y-82867308D01*
X174028861Y-82845729D01*
X174031164Y-82838746D01*
X174040845Y-82806742D01*
X174029747Y-82814752D01*
X174009906Y-82839717D01*
X173986290Y-82863205D01*
X173958860Y-82873761D01*
X173958860Y-82990527D01*
X173958734Y-83022434D01*
X173942096Y-83054182D01*
X173918886Y-83073958D01*
X173909566Y-83071922D01*
X173909566Y-83667600D01*
X173955153Y-83683556D01*
X173964600Y-83708810D01*
X173958728Y-83735836D01*
X173932508Y-83725160D01*
X173920150Y-83715997D01*
X173880229Y-83685810D01*
X173865116Y-83674787D01*
X173877590Y-83669176D01*
X173909566Y-83667600D01*
X173909566Y-83071922D01*
X173888400Y-83067298D01*
X173888400Y-83439000D01*
X173909307Y-83448293D01*
X173905333Y-83455933D01*
X173875189Y-83458973D01*
X173871466Y-83455933D01*
X173874953Y-83440833D01*
X173888400Y-83439000D01*
X173888400Y-83067298D01*
X173880499Y-83065571D01*
X173847235Y-83048849D01*
X173801676Y-83022110D01*
X173798687Y-83010827D01*
X173829172Y-83008216D01*
X173893853Y-83000290D01*
X173924422Y-82991782D01*
X173958860Y-82990527D01*
X173958860Y-82873761D01*
X173953255Y-82875918D01*
X173898868Y-82879340D01*
X173811198Y-82874954D01*
X173758839Y-82870919D01*
X173596980Y-82857459D01*
X173478900Y-82845930D01*
X173397715Y-82834562D01*
X173346538Y-82821587D01*
X173318483Y-82805237D01*
X173306666Y-82783744D01*
X173304201Y-82755339D01*
X173304199Y-82754161D01*
X173298326Y-82696995D01*
X173286749Y-82668015D01*
X173268133Y-82622363D01*
X173266168Y-82559292D01*
X173281712Y-82509664D01*
X173282321Y-82508877D01*
X173297691Y-82455153D01*
X173285945Y-82385931D01*
X173270216Y-82353150D01*
X173265939Y-82325424D01*
X173275732Y-82321400D01*
X173292647Y-82299668D01*
X173296281Y-82252501D01*
X173297719Y-82211017D01*
X173317626Y-82187042D01*
X173368304Y-82171517D01*
X173418500Y-82162506D01*
X173562395Y-82150560D01*
X173741198Y-82154455D01*
X173941985Y-82172922D01*
X174151831Y-82204697D01*
X174357812Y-82248512D01*
X174396400Y-82258344D01*
X174433956Y-82263982D01*
X174425841Y-82249430D01*
X174372770Y-82215212D01*
X174275454Y-82161855D01*
X174240846Y-82143800D01*
X174140124Y-82085938D01*
X174088283Y-82041834D01*
X174085311Y-82011455D01*
X174131198Y-81994763D01*
X174194794Y-81991200D01*
X174282893Y-81997359D01*
X174328484Y-82017081D01*
X174336414Y-82029300D01*
X174360908Y-82062900D01*
X174372920Y-82067400D01*
X174383550Y-82048262D01*
X174377775Y-82023018D01*
X174370194Y-81995743D01*
X174385374Y-81996539D01*
X174432499Y-82025653D01*
X174475071Y-82049540D01*
X174488914Y-82048713D01*
X174487108Y-82044925D01*
X174488097Y-82027630D01*
X174509380Y-82032308D01*
X174543713Y-82053938D01*
X174548800Y-82064007D01*
X174568036Y-82087994D01*
X174605950Y-82115077D01*
X174642362Y-82135046D01*
X174640858Y-82126578D01*
X174631350Y-82116107D01*
X174603328Y-82076472D01*
X174615006Y-82053267D01*
X174670528Y-82043020D01*
X174720250Y-82041653D01*
X174836767Y-82036176D01*
X174912139Y-82018324D01*
X174955210Y-81984752D01*
X174971810Y-81946563D01*
X174972480Y-81888787D01*
X174933455Y-81841665D01*
X174927461Y-81837036D01*
X174875989Y-81805567D01*
X174855495Y-81807575D01*
X174871201Y-81840093D01*
X174887622Y-81859694D01*
X174925386Y-81918611D01*
X174915928Y-81963716D01*
X174880669Y-81990306D01*
X174828329Y-82012396D01*
X174792482Y-82003891D01*
X174757940Y-81958034D01*
X174741426Y-81928350D01*
X174712649Y-81866086D01*
X174711070Y-81826655D01*
X174727667Y-81799414D01*
X174744663Y-81757083D01*
X174713344Y-81729596D01*
X174634013Y-81717079D01*
X174529750Y-81718264D01*
X174371000Y-81726907D01*
X174371000Y-81616935D01*
X174375871Y-81543674D01*
X174395209Y-81504394D01*
X174428150Y-81485623D01*
X174498311Y-81477644D01*
X174545972Y-81487152D01*
X174601774Y-81502499D01*
X174616805Y-81495012D01*
X174591979Y-81470894D01*
X174539244Y-81441484D01*
X174481228Y-81409338D01*
X174449326Y-81382955D01*
X174447200Y-81377692D01*
X174428161Y-81368297D01*
X174405634Y-81373744D01*
X174375152Y-81375437D01*
X174375858Y-81353897D01*
X174410724Y-81325633D01*
X174486461Y-81314455D01*
X174596510Y-81319256D01*
X174734311Y-81338927D01*
X174893307Y-81372361D01*
X175066936Y-81418451D01*
X175248640Y-81476089D01*
X175378308Y-81523167D01*
X175511601Y-81578557D01*
X175629960Y-81638879D01*
X175740364Y-81709899D01*
X175849792Y-81797384D01*
X175965223Y-81907100D01*
X176093635Y-82044813D01*
X176242007Y-82216291D01*
X176298232Y-82283300D01*
X176402785Y-82408658D01*
X176478776Y-82501688D01*
X176529772Y-82569412D01*
X176559340Y-82618849D01*
X176571049Y-82657021D01*
X176568466Y-82690949D01*
X176555157Y-82727653D01*
X176540649Y-82760396D01*
X176504735Y-82834553D01*
X176452731Y-82932956D01*
X176394847Y-83036390D01*
X176384773Y-83053748D01*
X176328285Y-83152911D01*
X176291899Y-83221884D01*
X176276995Y-83257322D01*
X176284955Y-83255879D01*
X176317162Y-83214211D01*
X176320360Y-83209701D01*
X176383172Y-83111549D01*
X176464975Y-82967960D01*
X176553225Y-82803010D01*
X176595550Y-82713150D01*
X176607971Y-82647875D01*
X176588524Y-82589342D01*
X176535247Y-82519712D01*
X176520181Y-82502684D01*
X176466500Y-82442668D01*
X176599850Y-82460617D01*
X176687232Y-82469523D01*
X176726569Y-82467589D01*
X176718927Y-82456969D01*
X176665371Y-82439818D01*
X176580181Y-82420851D01*
X176497632Y-82401985D01*
X176437384Y-82383307D01*
X176414960Y-82371003D01*
X176424979Y-82344073D01*
X176466751Y-82302616D01*
X176527362Y-82256304D01*
X176593898Y-82214806D01*
X176653446Y-82187794D01*
X176663350Y-82184989D01*
X176733200Y-82168032D01*
X176733200Y-80817292D01*
X176663350Y-80834853D01*
X176529848Y-80865429D01*
X176378185Y-80895252D01*
X176216588Y-80923240D01*
X176053281Y-80948309D01*
X175896492Y-80969377D01*
X175754446Y-80985359D01*
X175635369Y-80995174D01*
X175547489Y-80997737D01*
X175499030Y-80991966D01*
X175493781Y-80988848D01*
X175501937Y-80977313D01*
X175522285Y-80975200D01*
X175558807Y-80966166D01*
X175632394Y-80941607D01*
X175733137Y-80905337D01*
X175851127Y-80861171D01*
X175976454Y-80812922D01*
X176099209Y-80764403D01*
X176209482Y-80719430D01*
X176297364Y-80681816D01*
X176352200Y-80655778D01*
X176359064Y-80648783D01*
X176349535Y-80642777D01*
X176320349Y-80637687D01*
X176268240Y-80633439D01*
X176189946Y-80629961D01*
X176082202Y-80627179D01*
X175941745Y-80625021D01*
X175765310Y-80623412D01*
X175549633Y-80622280D01*
X175291451Y-80621552D01*
X174987499Y-80621155D01*
X174814949Y-80621059D01*
X174814949Y-81286398D01*
X174862696Y-81289948D01*
X174866300Y-81290299D01*
X174938954Y-81301982D01*
X175010287Y-81320509D01*
X175067785Y-81341430D01*
X175098931Y-81360298D01*
X175094900Y-81371563D01*
X175059023Y-81368970D01*
X174990966Y-81352924D01*
X174917100Y-81330606D01*
X174838899Y-81304147D01*
X174805933Y-81290271D01*
X174814949Y-81286398D01*
X174814949Y-80621059D01*
X174802800Y-80621052D01*
X174475016Y-80621002D01*
X174345600Y-80621085D01*
X174345600Y-81320617D01*
X174337858Y-81346013D01*
X174330182Y-81366822D01*
X174298621Y-81401857D01*
X174279382Y-81407000D01*
X174250120Y-81428013D01*
X174244000Y-81454806D01*
X174239605Y-81483963D01*
X174237806Y-81484454D01*
X174237806Y-81584800D01*
X174295001Y-81737739D01*
X174327860Y-81818981D01*
X174356929Y-81879445D01*
X174374298Y-81904338D01*
X174396025Y-81934000D01*
X174396400Y-81937876D01*
X174375723Y-81936533D01*
X174320700Y-81915536D01*
X174241838Y-81879079D01*
X174213305Y-81864842D01*
X174121909Y-81816935D01*
X174066583Y-81781243D01*
X174037494Y-81748224D01*
X174024807Y-81708339D01*
X174021094Y-81678364D01*
X174011978Y-81584800D01*
X174237806Y-81584800D01*
X174237806Y-81484454D01*
X174217446Y-81490011D01*
X174164056Y-81475080D01*
X174148750Y-81469868D01*
X174077948Y-81437293D01*
X174057673Y-81406126D01*
X174087656Y-81377030D01*
X174167630Y-81350672D01*
X174199550Y-81343752D01*
X174277311Y-81329156D01*
X174330287Y-81320995D01*
X174345600Y-81320617D01*
X174345600Y-80621085D01*
X174193894Y-80621184D01*
X173955297Y-80621710D01*
X173954760Y-80621712D01*
X173954760Y-81390331D01*
X173964600Y-81394300D01*
X173988831Y-81417124D01*
X173990000Y-81421199D01*
X173970348Y-81432108D01*
X173964600Y-81432400D01*
X173956133Y-81425632D01*
X173956133Y-81992194D01*
X174015277Y-82000490D01*
X174047494Y-82021917D01*
X174047905Y-82022950D01*
X174054666Y-82053315D01*
X174038044Y-82059375D01*
X173988549Y-82041983D01*
X173962093Y-82030684D01*
X173875700Y-81993188D01*
X173956133Y-81992194D01*
X173956133Y-81425632D01*
X173951900Y-81422247D01*
X173951900Y-81606361D01*
X173954672Y-81685825D01*
X173949113Y-81740781D01*
X173929413Y-81754536D01*
X173929272Y-81754483D01*
X173890724Y-81743683D01*
X173819404Y-81726670D01*
X173748700Y-81711019D01*
X173649759Y-81686802D01*
X173588813Y-81665477D01*
X173569474Y-81648986D01*
X173595359Y-81639273D01*
X173612798Y-81637957D01*
X173671963Y-81633820D01*
X173757803Y-81626200D01*
X173812200Y-81620809D01*
X173951900Y-81606361D01*
X173951900Y-81422247D01*
X173940176Y-81412873D01*
X173939200Y-81405500D01*
X173954760Y-81390331D01*
X173954760Y-80621712D01*
X173755086Y-80622693D01*
X173589123Y-80624247D01*
X173453271Y-80626485D01*
X173343392Y-80629520D01*
X173255348Y-80633466D01*
X173185001Y-80638435D01*
X173128213Y-80644541D01*
X173080847Y-80651897D01*
X173038765Y-80660616D01*
X172999400Y-80670399D01*
X172892489Y-80698188D01*
X172825489Y-80713423D01*
X172789084Y-80716106D01*
X172773959Y-80706236D01*
X172770799Y-80683813D01*
X172770800Y-80670400D01*
X172758438Y-80627321D01*
X172727272Y-80623556D01*
X172686174Y-80655821D01*
X172646201Y-80716492D01*
X172572870Y-80810700D01*
X172493139Y-80860115D01*
X172423434Y-80895878D01*
X172372583Y-80929670D01*
X172362743Y-80939096D01*
X172334427Y-80957195D01*
X172288763Y-80950218D01*
X172249405Y-80935172D01*
X172177219Y-80916272D01*
X172089467Y-80905191D01*
X172089467Y-84915140D01*
X172123925Y-84920002D01*
X172134926Y-84943769D01*
X172135800Y-84969361D01*
X172117412Y-85026717D01*
X172057891Y-85085603D01*
X172036069Y-85101404D01*
X171965032Y-85163353D01*
X171907628Y-85234969D01*
X171895178Y-85257258D01*
X171865938Y-85313136D01*
X171845193Y-85342631D01*
X171842508Y-85344000D01*
X171836971Y-85320686D01*
X171832893Y-85259082D01*
X171831039Y-85171693D01*
X171831000Y-85156217D01*
X171832201Y-85055086D01*
X171842110Y-84993023D01*
X171870185Y-84958305D01*
X171925882Y-84939205D01*
X172018252Y-84924059D01*
X172089467Y-84915140D01*
X172089467Y-80905191D01*
X172074803Y-80903339D01*
X171971515Y-80898999D01*
X171780200Y-80899000D01*
X171780200Y-82334100D01*
X171780543Y-82670972D01*
X171780543Y-82670972D01*
G37*
X171780543Y-82670972D02*
X171781596Y-82958874D01*
X171783394Y-83199632D01*
X171785973Y-83395071D01*
X171789368Y-83547017D01*
X171793613Y-83657295D01*
X171798744Y-83727732D01*
X171804796Y-83760152D01*
X171807735Y-83762850D01*
X171828480Y-83781999D01*
X171859920Y-83838549D01*
X171896413Y-83921797D01*
X171909742Y-83956349D01*
X171951043Y-84059453D01*
X171993297Y-84152361D01*
X172028628Y-84218001D01*
X172034606Y-84226970D01*
X172068562Y-84277575D01*
X172084771Y-84307470D01*
X172085000Y-84308849D01*
X172062763Y-84321341D01*
X172004777Y-84342912D01*
X171932600Y-84366100D01*
X171780200Y-84412243D01*
X171780200Y-84570223D01*
X171782892Y-84661536D01*
X171793857Y-84717193D01*
X171817423Y-84752185D01*
X171837349Y-84768069D01*
X171894500Y-84807935D01*
X171837350Y-84809267D01*
X171814764Y-84811404D01*
X171799084Y-84821826D01*
X171789049Y-84848399D01*
X171783400Y-84898990D01*
X171780877Y-84981466D01*
X171780221Y-85103695D01*
X171780200Y-85166200D01*
X171780200Y-85521800D01*
X172129690Y-85521800D01*
X172270162Y-85521267D01*
X172368473Y-85518900D01*
X172433257Y-85513539D01*
X172473149Y-85504030D01*
X172496782Y-85489213D01*
X172511097Y-85470691D01*
X172543015Y-85419583D01*
X172643195Y-85470691D01*
X172662711Y-85480051D01*
X172684385Y-85488193D01*
X172711695Y-85495202D01*
X172748120Y-85501162D01*
X172797140Y-85506159D01*
X172862234Y-85510277D01*
X172946880Y-85513601D01*
X173054558Y-85516216D01*
X173188746Y-85518207D01*
X173352923Y-85519659D01*
X173550570Y-85520656D01*
X173785163Y-85521284D01*
X174060184Y-85521627D01*
X174379109Y-85521771D01*
X174738288Y-85521800D01*
X176733200Y-85521800D01*
X176730954Y-83781900D01*
X176680012Y-83878432D01*
X176640011Y-83941820D01*
X176601688Y-83983407D01*
X176591743Y-83989288D01*
X176529733Y-83997884D01*
X176440198Y-83993224D01*
X176341066Y-83978295D01*
X176250267Y-83956087D01*
X176185730Y-83929590D01*
X176172135Y-83919335D01*
X176132035Y-83871556D01*
X176134002Y-83844829D01*
X176181259Y-83833893D01*
X176225200Y-83832700D01*
X176288839Y-83836927D01*
X176324219Y-83847488D01*
X176326800Y-83851750D01*
X176305073Y-83866204D01*
X176264799Y-83870800D01*
X176211017Y-83880165D01*
X176187100Y-83896200D01*
X176196396Y-83914753D01*
X176240333Y-83921600D01*
X176319316Y-83896540D01*
X176402946Y-83822117D01*
X176490315Y-83699462D01*
X176580517Y-83529706D01*
X176614722Y-83454513D01*
X176661693Y-83343413D01*
X176699654Y-83246294D01*
X176724455Y-83174269D01*
X176732096Y-83140041D01*
X176722985Y-83141576D01*
X176699505Y-83182506D01*
X176665866Y-83254945D01*
X176647055Y-83299300D01*
X176594841Y-83417392D01*
X176535257Y-83539729D01*
X176480308Y-83641781D01*
X176475046Y-83650741D01*
X176386974Y-83798983D01*
X176103717Y-83803141D01*
X175820461Y-83807300D01*
X175939325Y-83686650D01*
X175995199Y-83626504D01*
X176028904Y-83583274D01*
X176033412Y-83566022D01*
X176032950Y-83566000D01*
X176004720Y-83583019D01*
X175951356Y-83628383D01*
X175882654Y-83693552D01*
X175856104Y-83720165D01*
X175767204Y-83806357D01*
X175673155Y-83890888D01*
X175592671Y-83957016D01*
X175584598Y-83963079D01*
X175492374Y-84046223D01*
X175443775Y-84128963D01*
X175440099Y-84140909D01*
X175397923Y-84232287D01*
X175324645Y-84335015D01*
X175233074Y-84434895D01*
X175136016Y-84517728D01*
X175058031Y-84564458D01*
X174962074Y-84594896D01*
X174853038Y-84610741D01*
X174742043Y-84612903D01*
X174640209Y-84602295D01*
X174558655Y-84579826D01*
X174508500Y-84546409D01*
X174498000Y-84518561D01*
X174514283Y-84479622D01*
X174556389Y-84419673D01*
X174599600Y-84369041D01*
X174654000Y-84307487D01*
X174690871Y-84260914D01*
X174701200Y-84242609D01*
X174680255Y-84228560D01*
X174631312Y-84226790D01*
X174575202Y-84235580D01*
X174532758Y-84253207D01*
X174528480Y-84256879D01*
X174503311Y-84274551D01*
X174498000Y-84256879D01*
X174514608Y-84228293D01*
X174523400Y-84226400D01*
X174548061Y-84207071D01*
X174548800Y-84201000D01*
X174525584Y-84187574D01*
X174464578Y-84178436D01*
X174391320Y-84175600D01*
X174303998Y-84172526D01*
X174265010Y-84162270D01*
X174274570Y-84143278D01*
X174332891Y-84113997D01*
X174403579Y-84086272D01*
X174495124Y-84047102D01*
X174537147Y-84015893D01*
X174530199Y-83992043D01*
X174500555Y-83980427D01*
X174457238Y-83949305D01*
X174447294Y-83899587D01*
X174447389Y-83832700D01*
X174496036Y-83912478D01*
X174543405Y-83980957D01*
X174583225Y-84005590D01*
X174628913Y-83988803D01*
X174680236Y-83945769D01*
X174730354Y-83898404D01*
X174745083Y-83878046D01*
X174726481Y-83877381D01*
X174697620Y-83884011D01*
X174640810Y-83887202D01*
X174613571Y-83872858D01*
X174622387Y-83853275D01*
X174677878Y-83845488D01*
X174687277Y-83845400D01*
X174778702Y-83831475D01*
X174880623Y-83795515D01*
X174973703Y-83746236D01*
X175038602Y-83692358D01*
X175044873Y-83684187D01*
X175065360Y-83640985D01*
X175078826Y-83588535D01*
X175083269Y-83542657D01*
X175076681Y-83519169D01*
X175065211Y-83523722D01*
X175036012Y-83522270D01*
X175004232Y-83500900D01*
X174964493Y-83478496D01*
X174945301Y-83485267D01*
X174949517Y-83518970D01*
X174968179Y-83540832D01*
X175003317Y-83595284D01*
X174991291Y-83654900D01*
X174934058Y-83711897D01*
X174923450Y-83718678D01*
X174855926Y-83756823D01*
X174821736Y-83765693D01*
X174813012Y-83745732D01*
X174815804Y-83724750D01*
X174824449Y-83666945D01*
X174826256Y-83647050D01*
X174840067Y-83624510D01*
X174849366Y-83626883D01*
X174868249Y-83619561D01*
X174870533Y-83605404D01*
X174853379Y-83581180D01*
X174839235Y-83582853D01*
X174801681Y-83580708D01*
X174788690Y-83546132D01*
X174803780Y-83492930D01*
X174812520Y-83478082D01*
X174834992Y-83439089D01*
X174828358Y-83418900D01*
X174783921Y-83406457D01*
X174751761Y-83400859D01*
X174663258Y-83394068D01*
X174579629Y-83399889D01*
X174571408Y-83401513D01*
X174491313Y-83419104D01*
X174509460Y-83321102D01*
X174534911Y-83247564D01*
X174582147Y-83157955D01*
X174627103Y-83090839D01*
X174689496Y-83004378D01*
X174719402Y-82954481D01*
X174716814Y-82941793D01*
X174681725Y-82966958D01*
X174627893Y-83017074D01*
X174563601Y-83073117D01*
X174526860Y-83088366D01*
X174517742Y-83079379D01*
X174504060Y-83078754D01*
X174483200Y-83117510D01*
X174474454Y-83141533D01*
X174445945Y-83206029D01*
X174414724Y-83227220D01*
X174408551Y-83226410D01*
X174408551Y-83291016D01*
X174418744Y-83307958D01*
X174414207Y-83359834D01*
X174409364Y-83390727D01*
X174394316Y-83463188D01*
X174377964Y-83513365D01*
X174372345Y-83522670D01*
X174349133Y-83526305D01*
X174349133Y-83589828D01*
X174389676Y-83592656D01*
X174387510Y-83617234D01*
X174358300Y-83651271D01*
X174324874Y-83694020D01*
X174327677Y-83714510D01*
X174356961Y-83709728D01*
X174380808Y-83712816D01*
X174394756Y-83750854D01*
X174401411Y-83814960D01*
X174405471Y-83886463D01*
X174407056Y-83932606D01*
X174406691Y-83940941D01*
X174384198Y-83934640D01*
X174326732Y-83911969D01*
X174245626Y-83877453D01*
X174224772Y-83868295D01*
X174111553Y-83811613D01*
X174047295Y-83763040D01*
X174031556Y-83736595D01*
X174028016Y-83673883D01*
X174061003Y-83645041D01*
X174087563Y-83642200D01*
X174136263Y-83636034D01*
X174212903Y-83620265D01*
X174263864Y-83607820D01*
X174349133Y-83589828D01*
X174349133Y-83526305D01*
X174341368Y-83527521D01*
X174276433Y-83524785D01*
X174193470Y-83516449D01*
X174108411Y-83504498D01*
X174037186Y-83490920D01*
X173995727Y-83477702D01*
X173992425Y-83475291D01*
X173994314Y-83452419D01*
X174041044Y-83422644D01*
X174134739Y-83384764D01*
X174180500Y-83368869D01*
X174268873Y-83338561D01*
X174343094Y-83312211D01*
X174380228Y-83298218D01*
X174408551Y-83291016D01*
X174408551Y-83226410D01*
X174400455Y-83225347D01*
X174355954Y-83213627D01*
X174278028Y-83194332D01*
X174182721Y-83171428D01*
X174172873Y-83169097D01*
X174078648Y-83145969D01*
X174023910Y-83127477D01*
X173998658Y-83106779D01*
X173992894Y-83077032D01*
X173995073Y-83047420D01*
X174002995Y-83004484D01*
X174024157Y-82976037D01*
X174070218Y-82953727D01*
X174152838Y-82929202D01*
X174164523Y-82926047D01*
X174269894Y-82895566D01*
X174325724Y-82874245D01*
X174331943Y-82862267D01*
X174288481Y-82859815D01*
X174195270Y-82867074D01*
X174186497Y-82867991D01*
X174096210Y-82876577D01*
X174046437Y-82876970D01*
X174027284Y-82867308D01*
X174028861Y-82845729D01*
X174031164Y-82838746D01*
X174040845Y-82806742D01*
X174029747Y-82814752D01*
X174009906Y-82839717D01*
X173986290Y-82863205D01*
X173958860Y-82873761D01*
X173958860Y-82990527D01*
X173958734Y-83022434D01*
X173942096Y-83054182D01*
X173918886Y-83073958D01*
X173909566Y-83071922D01*
X173909566Y-83667600D01*
X173955153Y-83683556D01*
X173964600Y-83708810D01*
X173958728Y-83735836D01*
X173932508Y-83725160D01*
X173920150Y-83715997D01*
X173880229Y-83685810D01*
X173865116Y-83674787D01*
X173877590Y-83669176D01*
X173909566Y-83667600D01*
X173909566Y-83071922D01*
X173888400Y-83067298D01*
X173888400Y-83439000D01*
X173909307Y-83448293D01*
X173905333Y-83455933D01*
X173875189Y-83458973D01*
X173871466Y-83455933D01*
X173874953Y-83440833D01*
X173888400Y-83439000D01*
X173888400Y-83067298D01*
X173880499Y-83065571D01*
X173847235Y-83048849D01*
X173801676Y-83022110D01*
X173798687Y-83010827D01*
X173829172Y-83008216D01*
X173893853Y-83000290D01*
X173924422Y-82991782D01*
X173958860Y-82990527D01*
X173958860Y-82873761D01*
X173953255Y-82875918D01*
X173898868Y-82879340D01*
X173811198Y-82874954D01*
X173758839Y-82870919D01*
X173596980Y-82857459D01*
X173478900Y-82845930D01*
X173397715Y-82834562D01*
X173346538Y-82821587D01*
X173318483Y-82805237D01*
X173306666Y-82783744D01*
X173304201Y-82755339D01*
X173304199Y-82754161D01*
X173298326Y-82696995D01*
X173286749Y-82668015D01*
X173268133Y-82622363D01*
X173266168Y-82559292D01*
X173281712Y-82509664D01*
X173282321Y-82508877D01*
X173297691Y-82455153D01*
X173285945Y-82385931D01*
X173270216Y-82353150D01*
X173265939Y-82325424D01*
X173275732Y-82321400D01*
X173292647Y-82299668D01*
X173296281Y-82252501D01*
X173297719Y-82211017D01*
X173317626Y-82187042D01*
X173368304Y-82171517D01*
X173418500Y-82162506D01*
X173562395Y-82150560D01*
X173741198Y-82154455D01*
X173941985Y-82172922D01*
X174151831Y-82204697D01*
X174357812Y-82248512D01*
X174396400Y-82258344D01*
X174433956Y-82263982D01*
X174425841Y-82249430D01*
X174372770Y-82215212D01*
X174275454Y-82161855D01*
X174240846Y-82143800D01*
X174140124Y-82085938D01*
X174088283Y-82041834D01*
X174085311Y-82011455D01*
X174131198Y-81994763D01*
X174194794Y-81991200D01*
X174282893Y-81997359D01*
X174328484Y-82017081D01*
X174336414Y-82029300D01*
X174360908Y-82062900D01*
X174372920Y-82067400D01*
X174383550Y-82048262D01*
X174377775Y-82023018D01*
X174370194Y-81995743D01*
X174385374Y-81996539D01*
X174432499Y-82025653D01*
X174475071Y-82049540D01*
X174488914Y-82048713D01*
X174487108Y-82044925D01*
X174488097Y-82027630D01*
X174509380Y-82032308D01*
X174543713Y-82053938D01*
X174548800Y-82064007D01*
X174568036Y-82087994D01*
X174605950Y-82115077D01*
X174642362Y-82135046D01*
X174640858Y-82126578D01*
X174631350Y-82116107D01*
X174603328Y-82076472D01*
X174615006Y-82053267D01*
X174670528Y-82043020D01*
X174720250Y-82041653D01*
X174836767Y-82036176D01*
X174912139Y-82018324D01*
X174955210Y-81984752D01*
X174971810Y-81946563D01*
X174972480Y-81888787D01*
X174933455Y-81841665D01*
X174927461Y-81837036D01*
X174875989Y-81805567D01*
X174855495Y-81807575D01*
X174871201Y-81840093D01*
X174887622Y-81859694D01*
X174925386Y-81918611D01*
X174915928Y-81963716D01*
X174880669Y-81990306D01*
X174828329Y-82012396D01*
X174792482Y-82003891D01*
X174757940Y-81958034D01*
X174741426Y-81928350D01*
X174712649Y-81866086D01*
X174711070Y-81826655D01*
X174727667Y-81799414D01*
X174744663Y-81757083D01*
X174713344Y-81729596D01*
X174634013Y-81717079D01*
X174529750Y-81718264D01*
X174371000Y-81726907D01*
X174371000Y-81616935D01*
X174375871Y-81543674D01*
X174395209Y-81504394D01*
X174428150Y-81485623D01*
X174498311Y-81477644D01*
X174545972Y-81487152D01*
X174601774Y-81502499D01*
X174616805Y-81495012D01*
X174591979Y-81470894D01*
X174539244Y-81441484D01*
X174481228Y-81409338D01*
X174449326Y-81382955D01*
X174447200Y-81377692D01*
X174428161Y-81368297D01*
X174405634Y-81373744D01*
X174375152Y-81375437D01*
X174375858Y-81353897D01*
X174410724Y-81325633D01*
X174486461Y-81314455D01*
X174596510Y-81319256D01*
X174734311Y-81338927D01*
X174893307Y-81372361D01*
X175066936Y-81418451D01*
X175248640Y-81476089D01*
X175378308Y-81523167D01*
X175511601Y-81578557D01*
X175629960Y-81638879D01*
X175740364Y-81709899D01*
X175849792Y-81797384D01*
X175965223Y-81907100D01*
X176093635Y-82044813D01*
X176242007Y-82216291D01*
X176298232Y-82283300D01*
X176402785Y-82408658D01*
X176478776Y-82501688D01*
X176529772Y-82569412D01*
X176559340Y-82618849D01*
X176571049Y-82657021D01*
X176568466Y-82690949D01*
X176555157Y-82727653D01*
X176540649Y-82760396D01*
X176504735Y-82834553D01*
X176452731Y-82932956D01*
X176394847Y-83036390D01*
X176384773Y-83053748D01*
X176328285Y-83152911D01*
X176291899Y-83221884D01*
X176276995Y-83257322D01*
X176284955Y-83255879D01*
X176317162Y-83214211D01*
X176320360Y-83209701D01*
X176383172Y-83111549D01*
X176464975Y-82967960D01*
X176553225Y-82803010D01*
X176595550Y-82713150D01*
X176607971Y-82647875D01*
X176588524Y-82589342D01*
X176535247Y-82519712D01*
X176520181Y-82502684D01*
X176466500Y-82442668D01*
X176599850Y-82460617D01*
X176687232Y-82469523D01*
X176726569Y-82467589D01*
X176718927Y-82456969D01*
X176665371Y-82439818D01*
X176580181Y-82420851D01*
X176497632Y-82401985D01*
X176437384Y-82383307D01*
X176414960Y-82371003D01*
X176424979Y-82344073D01*
X176466751Y-82302616D01*
X176527362Y-82256304D01*
X176593898Y-82214806D01*
X176653446Y-82187794D01*
X176663350Y-82184989D01*
X176733200Y-82168032D01*
X176733200Y-80817292D01*
X176663350Y-80834853D01*
X176529848Y-80865429D01*
X176378185Y-80895252D01*
X176216588Y-80923240D01*
X176053281Y-80948309D01*
X175896492Y-80969377D01*
X175754446Y-80985359D01*
X175635369Y-80995174D01*
X175547489Y-80997737D01*
X175499030Y-80991966D01*
X175493781Y-80988848D01*
X175501937Y-80977313D01*
X175522285Y-80975200D01*
X175558807Y-80966166D01*
X175632394Y-80941607D01*
X175733137Y-80905337D01*
X175851127Y-80861171D01*
X175976454Y-80812922D01*
X176099209Y-80764403D01*
X176209482Y-80719430D01*
X176297364Y-80681816D01*
X176352200Y-80655778D01*
X176359064Y-80648783D01*
X176349535Y-80642777D01*
X176320349Y-80637687D01*
X176268240Y-80633439D01*
X176189946Y-80629961D01*
X176082202Y-80627179D01*
X175941745Y-80625021D01*
X175765310Y-80623412D01*
X175549633Y-80622280D01*
X175291451Y-80621552D01*
X174987499Y-80621155D01*
X174814949Y-80621059D01*
X174814949Y-81286398D01*
X174862696Y-81289948D01*
X174866300Y-81290299D01*
X174938954Y-81301982D01*
X175010287Y-81320509D01*
X175067785Y-81341430D01*
X175098931Y-81360298D01*
X175094900Y-81371563D01*
X175059023Y-81368970D01*
X174990966Y-81352924D01*
X174917100Y-81330606D01*
X174838899Y-81304147D01*
X174805933Y-81290271D01*
X174814949Y-81286398D01*
X174814949Y-80621059D01*
X174802800Y-80621052D01*
X174475016Y-80621002D01*
X174345600Y-80621085D01*
X174345600Y-81320617D01*
X174337858Y-81346013D01*
X174330182Y-81366822D01*
X174298621Y-81401857D01*
X174279382Y-81407000D01*
X174250120Y-81428013D01*
X174244000Y-81454806D01*
X174239605Y-81483963D01*
X174237806Y-81484454D01*
X174237806Y-81584800D01*
X174295001Y-81737739D01*
X174327860Y-81818981D01*
X174356929Y-81879445D01*
X174374298Y-81904338D01*
X174396025Y-81934000D01*
X174396400Y-81937876D01*
X174375723Y-81936533D01*
X174320700Y-81915536D01*
X174241838Y-81879079D01*
X174213305Y-81864842D01*
X174121909Y-81816935D01*
X174066583Y-81781243D01*
X174037494Y-81748224D01*
X174024807Y-81708339D01*
X174021094Y-81678364D01*
X174011978Y-81584800D01*
X174237806Y-81584800D01*
X174237806Y-81484454D01*
X174217446Y-81490011D01*
X174164056Y-81475080D01*
X174148750Y-81469868D01*
X174077948Y-81437293D01*
X174057673Y-81406126D01*
X174087656Y-81377030D01*
X174167630Y-81350672D01*
X174199550Y-81343752D01*
X174277311Y-81329156D01*
X174330287Y-81320995D01*
X174345600Y-81320617D01*
X174345600Y-80621085D01*
X174193894Y-80621184D01*
X173955297Y-80621710D01*
X173954760Y-80621712D01*
X173954760Y-81390331D01*
X173964600Y-81394300D01*
X173988831Y-81417124D01*
X173990000Y-81421199D01*
X173970348Y-81432108D01*
X173964600Y-81432400D01*
X173956133Y-81425632D01*
X173956133Y-81992194D01*
X174015277Y-82000490D01*
X174047494Y-82021917D01*
X174047905Y-82022950D01*
X174054666Y-82053315D01*
X174038044Y-82059375D01*
X173988549Y-82041983D01*
X173962093Y-82030684D01*
X173875700Y-81993188D01*
X173956133Y-81992194D01*
X173956133Y-81425632D01*
X173951900Y-81422247D01*
X173951900Y-81606361D01*
X173954672Y-81685825D01*
X173949113Y-81740781D01*
X173929413Y-81754536D01*
X173929272Y-81754483D01*
X173890724Y-81743683D01*
X173819404Y-81726670D01*
X173748700Y-81711019D01*
X173649759Y-81686802D01*
X173588813Y-81665477D01*
X173569474Y-81648986D01*
X173595359Y-81639273D01*
X173612798Y-81637957D01*
X173671963Y-81633820D01*
X173757803Y-81626200D01*
X173812200Y-81620809D01*
X173951900Y-81606361D01*
X173951900Y-81422247D01*
X173940176Y-81412873D01*
X173939200Y-81405500D01*
X173954760Y-81390331D01*
X173954760Y-80621712D01*
X173755086Y-80622693D01*
X173589123Y-80624247D01*
X173453271Y-80626485D01*
X173343392Y-80629520D01*
X173255348Y-80633466D01*
X173185001Y-80638435D01*
X173128213Y-80644541D01*
X173080847Y-80651897D01*
X173038765Y-80660616D01*
X172999400Y-80670399D01*
X172892489Y-80698188D01*
X172825489Y-80713423D01*
X172789084Y-80716106D01*
X172773959Y-80706236D01*
X172770799Y-80683813D01*
X172770800Y-80670400D01*
X172758438Y-80627321D01*
X172727272Y-80623556D01*
X172686174Y-80655821D01*
X172646201Y-80716492D01*
X172572870Y-80810700D01*
X172493139Y-80860115D01*
X172423434Y-80895878D01*
X172372583Y-80929670D01*
X172362743Y-80939096D01*
X172334427Y-80957195D01*
X172288763Y-80950218D01*
X172249405Y-80935172D01*
X172177219Y-80916272D01*
X172089467Y-80905191D01*
X172089467Y-84915140D01*
X172123925Y-84920002D01*
X172134926Y-84943769D01*
X172135800Y-84969361D01*
X172117412Y-85026717D01*
X172057891Y-85085603D01*
X172036069Y-85101404D01*
X171965032Y-85163353D01*
X171907628Y-85234969D01*
X171895178Y-85257258D01*
X171865938Y-85313136D01*
X171845193Y-85342631D01*
X171842508Y-85344000D01*
X171836971Y-85320686D01*
X171832893Y-85259082D01*
X171831039Y-85171693D01*
X171831000Y-85156217D01*
X171832201Y-85055086D01*
X171842110Y-84993023D01*
X171870185Y-84958305D01*
X171925882Y-84939205D01*
X172018252Y-84924059D01*
X172089467Y-84915140D01*
X172089467Y-80905191D01*
X172074803Y-80903339D01*
X171971515Y-80898999D01*
X171780200Y-80899000D01*
X171780200Y-82334100D01*
X171780543Y-82670972D01*
G36*
X172463967Y-77994581D02*
G01*
X172493246Y-78029753D01*
X172500170Y-78037228D01*
X172539145Y-78075542D01*
X172563686Y-78093904D01*
X172565063Y-78094179D01*
X172559154Y-78079875D01*
X172529875Y-78044704D01*
X172522951Y-78037228D01*
X172483976Y-77998915D01*
X172459435Y-77980552D01*
X172458058Y-77980278D01*
X172463967Y-77994581D01*
X172463967Y-77994581D01*
G37*
X172463967Y-77994581D02*
X172493246Y-78029753D01*
X172500170Y-78037228D01*
X172539145Y-78075542D01*
X172563686Y-78093904D01*
X172565063Y-78094179D01*
X172559154Y-78079875D01*
X172529875Y-78044704D01*
X172522951Y-78037228D01*
X172483976Y-77998915D01*
X172459435Y-77980552D01*
X172458058Y-77980278D01*
X172463967Y-77994581D01*
G36*
X172558544Y-72729390D02*
G01*
X172526882Y-72766249D01*
X172498909Y-72832808D01*
X172473199Y-72933261D01*
X172448326Y-73071803D01*
X172428747Y-73207811D01*
X172409671Y-73390680D01*
X172395784Y-73608290D01*
X172387084Y-73850121D01*
X172383570Y-74105649D01*
X172385240Y-74364353D01*
X172392091Y-74615711D01*
X172404123Y-74849201D01*
X172421333Y-75054300D01*
X172429072Y-75121354D01*
X172443622Y-75240548D01*
X172455151Y-75342657D01*
X172462827Y-75419676D01*
X172465823Y-75463597D01*
X172465285Y-75470668D01*
X172440562Y-75477942D01*
X172386466Y-75487289D01*
X172359675Y-75490987D01*
X172289607Y-75507791D01*
X172198757Y-75539948D01*
X172106164Y-75580673D01*
X172101516Y-75582968D01*
X171870119Y-75705945D01*
X171677338Y-75827571D01*
X171516839Y-75953934D01*
X171382286Y-76091121D01*
X171267347Y-76245218D01*
X171165688Y-76422314D01*
X171112276Y-76533629D01*
X171078141Y-76612698D01*
X171053212Y-76677664D01*
X171042359Y-76715722D01*
X171042233Y-76717779D01*
X171031821Y-76754720D01*
X171001343Y-76751889D01*
X170951938Y-76709839D01*
X170899741Y-76648574D01*
X170803563Y-76541052D01*
X170681913Y-76426894D01*
X170550255Y-76319467D01*
X170424053Y-76232140D01*
X170404386Y-76220333D01*
X170303651Y-76175710D01*
X170199632Y-76153445D01*
X170104971Y-76154539D01*
X170032314Y-76179994D01*
X170019529Y-76189862D01*
X169984179Y-76231826D01*
X169971561Y-76263898D01*
X169959537Y-76291895D01*
X169951347Y-76294538D01*
X169926827Y-76282428D01*
X169870917Y-76248766D01*
X169789947Y-76197554D01*
X169690246Y-76132793D01*
X169581967Y-76061040D01*
X169438426Y-75967482D01*
X169276603Y-75865960D01*
X169112550Y-75766311D01*
X168962322Y-75678371D01*
X168901738Y-75644258D01*
X168570676Y-75460974D01*
X168513264Y-75374676D01*
X168437897Y-75374676D01*
X168437808Y-75375614D01*
X168414985Y-75370378D01*
X168360939Y-75349481D01*
X168285570Y-75316872D01*
X168250743Y-75301005D01*
X168148141Y-75259199D01*
X168050635Y-75229327D01*
X167966862Y-75212946D01*
X167905460Y-75211616D01*
X167875067Y-75226895D01*
X167873374Y-75232894D01*
X167872164Y-75270068D01*
X167872051Y-75332537D01*
X167872289Y-75355526D01*
X167868676Y-75414343D01*
X167857350Y-75440085D01*
X167851571Y-75439397D01*
X167831522Y-75416965D01*
X167790359Y-75363782D01*
X167733024Y-75286472D01*
X167664458Y-75191660D01*
X167617417Y-75125495D01*
X167432967Y-74835494D01*
X167290341Y-74544466D01*
X167186365Y-74244233D01*
X167117868Y-73926615D01*
X167099313Y-73789558D01*
X167087200Y-73678298D01*
X167081309Y-73603139D01*
X167081988Y-73555003D01*
X167089579Y-73524813D01*
X167104429Y-73503490D01*
X167110410Y-73497407D01*
X167134640Y-73478125D01*
X167157512Y-73478780D01*
X167189198Y-73504320D01*
X167239871Y-73559692D01*
X167240943Y-73560905D01*
X167351578Y-73692776D01*
X167462083Y-73838752D01*
X167578234Y-74006967D01*
X167705807Y-74205553D01*
X167753668Y-74282832D01*
X167836222Y-74415951D01*
X167934452Y-74572405D01*
X168039026Y-74737446D01*
X168140612Y-74896322D01*
X168200700Y-74989422D01*
X168275262Y-75105391D01*
X168339878Y-75207788D01*
X168390931Y-75290725D01*
X168424809Y-75348317D01*
X168437897Y-75374676D01*
X168513264Y-75374676D01*
X168381927Y-75177263D01*
X168302480Y-75056545D01*
X168220243Y-74929381D01*
X168144203Y-74809801D01*
X168083351Y-74711837D01*
X168076117Y-74699919D01*
X167901607Y-74417023D01*
X167741578Y-74170052D01*
X167592131Y-73953243D01*
X167449370Y-73760832D01*
X167390572Y-73686041D01*
X167273078Y-73544336D01*
X167177276Y-73440893D01*
X167101448Y-73374887D01*
X167043871Y-73345496D01*
X167002828Y-73351894D01*
X166976596Y-73393260D01*
X166963457Y-73468770D01*
X166962613Y-73481175D01*
X166965893Y-73684125D01*
X166999120Y-73907184D01*
X167063102Y-74154108D01*
X167158647Y-74428655D01*
X167175619Y-74472116D01*
X167247434Y-74627631D01*
X167346607Y-74804260D01*
X167466916Y-74992321D01*
X167602138Y-75182136D01*
X167746053Y-75364024D01*
X167757908Y-75378123D01*
X167810473Y-75446783D01*
X167849156Y-75509426D01*
X167865143Y-75550816D01*
X167878939Y-75603059D01*
X167906816Y-75672316D01*
X167919992Y-75699615D01*
X167947402Y-75758206D01*
X167986124Y-75847361D01*
X168031085Y-75955131D01*
X168077210Y-76069568D01*
X168078823Y-76073648D01*
X168164552Y-76284406D01*
X168264335Y-76519358D01*
X168372328Y-76765405D01*
X168482684Y-77009449D01*
X168589560Y-77238394D01*
X168687109Y-77439140D01*
X168696969Y-77458837D01*
X168779292Y-77635049D01*
X168853688Y-77817923D01*
X168917283Y-77998489D01*
X168967207Y-78167779D01*
X169000586Y-78316823D01*
X169014547Y-78436653D01*
X169014789Y-78451212D01*
X169005303Y-78544323D01*
X168980194Y-78653335D01*
X168944487Y-78762742D01*
X168903207Y-78857035D01*
X168863379Y-78918518D01*
X168777490Y-78984042D01*
X168657806Y-79032444D01*
X168512913Y-79063323D01*
X168351400Y-79076272D01*
X168181854Y-79070888D01*
X168012862Y-79046767D01*
X167853012Y-79003504D01*
X167769084Y-78970035D01*
X167684762Y-78927538D01*
X167626660Y-78889911D01*
X167602638Y-78862332D01*
X167602413Y-78860267D01*
X167585803Y-78823733D01*
X167545618Y-78781803D01*
X167543469Y-78780090D01*
X167512009Y-78760636D01*
X167471935Y-78748122D01*
X167417627Y-78742816D01*
X167343462Y-78744988D01*
X167243819Y-78754908D01*
X167113078Y-78772845D01*
X166945616Y-78799070D01*
X166862054Y-78812773D01*
X166686869Y-78840009D01*
X166531236Y-78859634D01*
X166382433Y-78872440D01*
X166227737Y-78879220D01*
X166054423Y-78880767D01*
X165849770Y-78877872D01*
X165825552Y-78877334D01*
X165674977Y-78874127D01*
X165531536Y-78871496D01*
X165404590Y-78869579D01*
X165303506Y-78868517D01*
X165237645Y-78868450D01*
X165233265Y-78868504D01*
X165134773Y-78862565D01*
X165031835Y-78845442D01*
X164994072Y-78835599D01*
X164929018Y-78816018D01*
X164885154Y-78803307D01*
X164874475Y-78800614D01*
X164869734Y-78819437D01*
X164868780Y-78842860D01*
X164862268Y-78868914D01*
X164835023Y-78879178D01*
X164775483Y-78877563D01*
X164767982Y-78876956D01*
X164688289Y-78862827D01*
X164577097Y-78832923D01*
X164444168Y-78790797D01*
X164299260Y-78740003D01*
X164152132Y-78684095D01*
X164012545Y-78626627D01*
X163890257Y-78571153D01*
X163801650Y-78525064D01*
X163716764Y-78477446D01*
X163646327Y-78439897D01*
X163599818Y-78417363D01*
X163587137Y-78413103D01*
X163538833Y-78395186D01*
X163474714Y-78346768D01*
X163403331Y-78275844D01*
X163333234Y-78190413D01*
X163303130Y-78147471D01*
X163243875Y-78061940D01*
X163183302Y-77980951D01*
X163133484Y-77920569D01*
X163128874Y-77915548D01*
X163068153Y-77864300D01*
X162979271Y-77805567D01*
X162876791Y-77747697D01*
X162775274Y-77699039D01*
X162704833Y-77672445D01*
X162665378Y-77664639D01*
X162661322Y-77675368D01*
X162688194Y-77701113D01*
X162741524Y-77738359D01*
X162816843Y-77783587D01*
X162908440Y-77832651D01*
X163001650Y-77881508D01*
X163066478Y-77922315D01*
X163115725Y-77966506D01*
X163162194Y-78025516D01*
X163217161Y-78108412D01*
X163338786Y-78268659D01*
X163482325Y-78401248D01*
X163657212Y-78514237D01*
X163744425Y-78558814D01*
X163836775Y-78604940D01*
X163926321Y-78652759D01*
X163993895Y-78692027D01*
X163994651Y-78692503D01*
X164061211Y-78727010D01*
X164160185Y-78768965D01*
X164281481Y-78815008D01*
X164415004Y-78861778D01*
X164550663Y-78905915D01*
X164678363Y-78944058D01*
X164788012Y-78972848D01*
X164869516Y-78988924D01*
X164891239Y-78991011D01*
X164963272Y-78990635D01*
X164998466Y-78979963D01*
X165005462Y-78964105D01*
X165020660Y-78942309D01*
X165059195Y-78945596D01*
X165114550Y-78953751D01*
X165208261Y-78961187D01*
X165333126Y-78967789D01*
X165481943Y-78973445D01*
X165647512Y-78978041D01*
X165822632Y-78981465D01*
X166000101Y-78983603D01*
X166172718Y-78984342D01*
X166333281Y-78983569D01*
X166474591Y-78981171D01*
X166589445Y-78977034D01*
X166670642Y-78971046D01*
X166671626Y-78970935D01*
X166745163Y-78961382D01*
X166848409Y-78946438D01*
X166966159Y-78928359D01*
X167055686Y-78913961D01*
X167206755Y-78889778D01*
X167320308Y-78873929D01*
X167403636Y-78866508D01*
X167464031Y-78867606D01*
X167508786Y-78877316D01*
X167545192Y-78895729D01*
X167577734Y-78920566D01*
X167633196Y-78959663D01*
X167714592Y-79008096D01*
X167806240Y-79056656D01*
X167825700Y-79066190D01*
X167987545Y-79127620D01*
X168168131Y-79168226D01*
X168356518Y-79187703D01*
X168541768Y-79185751D01*
X168712939Y-79162067D01*
X168859094Y-79116350D01*
X168900888Y-79095873D01*
X168991795Y-79028666D01*
X169057187Y-78938095D01*
X169099655Y-78818477D01*
X169121787Y-78664127D01*
X169125104Y-78603696D01*
X169117806Y-78411133D01*
X169080611Y-78209030D01*
X169011918Y-77991492D01*
X168910128Y-77752621D01*
X168873619Y-77677371D01*
X168787790Y-77500164D01*
X168689995Y-77290427D01*
X168584672Y-77058135D01*
X168476262Y-76813262D01*
X168369202Y-76565783D01*
X168267932Y-76325672D01*
X168215945Y-76199473D01*
X168163245Y-76071278D01*
X168113734Y-75952650D01*
X168071043Y-75852155D01*
X168038804Y-75778356D01*
X168022764Y-75743868D01*
X168006138Y-75708180D01*
X168007489Y-75698916D01*
X168030772Y-75718304D01*
X168079944Y-75768569D01*
X168095309Y-75784709D01*
X168226395Y-75917008D01*
X168372912Y-76055158D01*
X168528071Y-76193546D01*
X168685087Y-76326560D01*
X168837172Y-76448584D01*
X168977540Y-76554007D01*
X169099402Y-76637214D01*
X169188566Y-76688929D01*
X169266493Y-76731206D01*
X169327374Y-76769904D01*
X169360349Y-76797968D01*
X169362846Y-76802180D01*
X169379893Y-76831226D01*
X169418565Y-76889718D01*
X169473782Y-76970188D01*
X169540464Y-77065169D01*
X169569524Y-77105992D01*
X169767498Y-77415197D01*
X169908106Y-77684941D01*
X169964420Y-77802028D01*
X170019732Y-77912020D01*
X170068666Y-78004556D01*
X170105846Y-78069276D01*
X170114357Y-78082382D01*
X170151034Y-78140614D01*
X170173388Y-78185288D01*
X170176583Y-78197716D01*
X170190964Y-78227461D01*
X170225748Y-78268244D01*
X170268394Y-78308212D01*
X170306361Y-78335509D01*
X170326336Y-78339284D01*
X170326882Y-78312410D01*
X170315628Y-78254340D01*
X170294969Y-78177172D01*
X170292848Y-78170093D01*
X170240107Y-77983749D01*
X170215949Y-77889157D01*
X170106923Y-77889157D01*
X170097108Y-77883700D01*
X170071093Y-77843878D01*
X170032771Y-77776220D01*
X169986034Y-77687250D01*
X169983246Y-77681769D01*
X169922901Y-77571270D01*
X169844401Y-77439513D01*
X169757073Y-77301579D01*
X169670247Y-77172547D01*
X169653571Y-77148866D01*
X169583604Y-77048886D01*
X169525091Y-76962352D01*
X169482275Y-76895780D01*
X169459400Y-76855688D01*
X169457007Y-76847058D01*
X169480758Y-76851511D01*
X169536249Y-76871952D01*
X169614107Y-76904736D01*
X169670350Y-76930051D01*
X169759511Y-76970039D01*
X169834102Y-77001482D01*
X169883880Y-77020170D01*
X169897556Y-77023506D01*
X169912766Y-77044223D01*
X169930511Y-77098920D01*
X169947282Y-77176421D01*
X169949387Y-77188663D01*
X169967314Y-77282696D01*
X169993342Y-77402329D01*
X170023376Y-77529265D01*
X170042421Y-77604403D01*
X170068613Y-77707775D01*
X170089632Y-77796875D01*
X170103128Y-77861324D01*
X170106923Y-77889157D01*
X170215949Y-77889157D01*
X170186190Y-77772639D01*
X170136017Y-77557146D01*
X170094504Y-77357656D01*
X170086232Y-77313636D01*
X170045506Y-77091209D01*
X170150910Y-77094095D01*
X170263810Y-77088299D01*
X170337726Y-77062694D01*
X170375340Y-77015902D01*
X170381605Y-76975588D01*
X170367313Y-76905626D01*
X170344436Y-76851396D01*
X170248888Y-76851396D01*
X170244732Y-76907160D01*
X170209356Y-76942417D01*
X170199363Y-76947876D01*
X170137276Y-76970532D01*
X170091157Y-76977610D01*
X170055333Y-76970086D01*
X170041536Y-76938172D01*
X170040063Y-76903910D01*
X170042682Y-76822165D01*
X170045985Y-76777479D01*
X169925418Y-76777479D01*
X169923884Y-76864954D01*
X169913363Y-76917044D01*
X169887340Y-76937698D01*
X169839299Y-76930865D01*
X169762725Y-76900492D01*
X169651101Y-76850527D01*
X169618466Y-76836100D01*
X169528063Y-76795491D01*
X169452484Y-76759805D01*
X169402191Y-76734071D01*
X169388658Y-76725628D01*
X169366789Y-76698342D01*
X169338538Y-76656987D01*
X169258894Y-76656987D01*
X169256931Y-76659022D01*
X169232180Y-76648922D01*
X169178206Y-76622180D01*
X169105694Y-76584132D01*
X169089609Y-76575474D01*
X168978604Y-76507411D01*
X168845509Y-76413065D01*
X168698981Y-76299771D01*
X168547681Y-76174865D01*
X168400268Y-76045682D01*
X168265400Y-75919558D01*
X168151738Y-75803828D01*
X168077370Y-75717978D01*
X168028019Y-75652229D01*
X168001950Y-75601835D01*
X167992801Y-75547552D01*
X167994213Y-75470136D01*
X167994371Y-75466853D01*
X167999247Y-75390675D01*
X168008320Y-75348725D01*
X168027426Y-75329702D01*
X168062399Y-75322302D01*
X168069408Y-75321493D01*
X168134934Y-75328717D01*
X168223257Y-75357332D01*
X168321570Y-75400887D01*
X168417066Y-75452928D01*
X168496938Y-75507003D01*
X168548378Y-75556657D01*
X168554304Y-75565803D01*
X168583042Y-75612094D01*
X168631323Y-75684902D01*
X168692092Y-75773751D01*
X168750149Y-75856677D01*
X168844373Y-75991678D01*
X168936334Y-76126962D01*
X169022787Y-76257393D01*
X169100488Y-76377835D01*
X169166194Y-76483152D01*
X169216659Y-76568207D01*
X169248641Y-76627864D01*
X169258894Y-76656987D01*
X169338538Y-76656987D01*
X169327887Y-76641396D01*
X169278269Y-76564251D01*
X169243996Y-76508958D01*
X169183180Y-76412686D01*
X169105457Y-76294354D01*
X169020693Y-76168763D01*
X168938751Y-76050717D01*
X168936395Y-76047385D01*
X168840973Y-75910311D01*
X168760690Y-75790635D01*
X168698046Y-75692387D01*
X168655541Y-75619595D01*
X168635673Y-75576288D01*
X168637450Y-75565569D01*
X168669764Y-75577029D01*
X168734251Y-75608912D01*
X168824463Y-75657471D01*
X168933950Y-75718959D01*
X169056265Y-75789629D01*
X169184959Y-75865735D01*
X169313584Y-75943529D01*
X169435692Y-76019264D01*
X169544833Y-76089195D01*
X169589232Y-76118599D01*
X169924481Y-76343592D01*
X169924481Y-76650673D01*
X169925418Y-76777479D01*
X170045985Y-76777479D01*
X170049304Y-76732579D01*
X170058560Y-76646621D01*
X170069082Y-76575758D01*
X170079502Y-76531458D01*
X170085582Y-76522340D01*
X170106514Y-76541546D01*
X170137970Y-76591082D01*
X170173936Y-76658828D01*
X170208396Y-76732661D01*
X170235335Y-76800461D01*
X170248735Y-76850107D01*
X170248888Y-76851396D01*
X170344436Y-76851396D01*
X170328985Y-76814770D01*
X170273451Y-76715641D01*
X170207535Y-76620860D01*
X170158968Y-76563960D01*
X170110984Y-76507707D01*
X170091736Y-76464851D01*
X170094642Y-76420007D01*
X170095631Y-76415889D01*
X170133965Y-76326562D01*
X170195484Y-76276282D01*
X170281226Y-76264278D01*
X170297897Y-76265939D01*
X170442068Y-76306636D01*
X170589838Y-76391884D01*
X170740125Y-76520914D01*
X170882216Y-76680800D01*
X170944209Y-76763163D01*
X170977756Y-76820834D01*
X170986755Y-76861209D01*
X170984271Y-76874432D01*
X170974562Y-76919242D01*
X170963139Y-76994148D01*
X170952299Y-77083863D01*
X170951196Y-77094421D01*
X170940418Y-77185686D01*
X170928604Y-77264693D01*
X170918136Y-77315707D01*
X170917209Y-77318809D01*
X170906152Y-77382653D01*
X170901099Y-77473925D01*
X170902130Y-77574880D01*
X170909320Y-77667774D01*
X170915503Y-77706914D01*
X170935066Y-77771777D01*
X170968467Y-77854583D01*
X170995711Y-77911937D01*
X171033045Y-77988359D01*
X171063037Y-78055967D01*
X171075997Y-78090507D01*
X171119138Y-78182375D01*
X171194727Y-78290893D01*
X171296005Y-78409507D01*
X171416209Y-78531663D01*
X171548581Y-78650806D01*
X171686359Y-78760383D01*
X171822784Y-78853839D01*
X171921208Y-78909952D01*
X171976153Y-78934846D01*
X172057991Y-78968064D01*
X172156859Y-79006033D01*
X172262895Y-79045179D01*
X172366238Y-79081929D01*
X172457023Y-79112709D01*
X172525391Y-79133947D01*
X172561477Y-79142067D01*
X172561836Y-79142071D01*
X172566244Y-79122006D01*
X172568452Y-79072652D01*
X172568511Y-79062015D01*
X172557480Y-79008834D01*
X172536621Y-78951048D01*
X172442348Y-78951048D01*
X172438981Y-78994914D01*
X172421176Y-79005390D01*
X172387430Y-78998596D01*
X172320708Y-78980180D01*
X172231205Y-78953089D01*
X172145428Y-78925640D01*
X171973597Y-78864420D01*
X171831644Y-78800960D01*
X171704285Y-78727008D01*
X171576235Y-78634316D01*
X171516657Y-78586230D01*
X171373310Y-78451602D01*
X171267656Y-78313563D01*
X171192311Y-78162520D01*
X171158210Y-78083698D01*
X171121186Y-78010353D01*
X171110272Y-77991559D01*
X171064399Y-77885048D01*
X171036252Y-77752311D01*
X171028041Y-77609963D01*
X171041701Y-77475973D01*
X171059823Y-77373318D01*
X171077168Y-77254351D01*
X171087786Y-77165029D01*
X171098165Y-77081894D01*
X171109790Y-77017290D01*
X171120315Y-76983972D01*
X171121283Y-76982786D01*
X171144225Y-76990490D01*
X171190973Y-77029000D01*
X171257023Y-77093423D01*
X171337871Y-77178868D01*
X171429014Y-77280441D01*
X171525949Y-77393250D01*
X171624171Y-77512404D01*
X171715829Y-77628653D01*
X171815161Y-77763874D01*
X171914879Y-77910757D01*
X172012614Y-78064680D01*
X172105998Y-78221022D01*
X172192664Y-78375160D01*
X172270244Y-78522473D01*
X172336370Y-78658340D01*
X172388675Y-78778140D01*
X172424790Y-78877249D01*
X172442348Y-78951048D01*
X172536621Y-78951048D01*
X172526263Y-78922355D01*
X172477678Y-78808606D01*
X172414543Y-78673617D01*
X172339674Y-78523418D01*
X172255889Y-78364036D01*
X172168401Y-78205727D01*
X172074409Y-78053623D01*
X171954601Y-77880823D01*
X171816860Y-77697291D01*
X171669071Y-77512989D01*
X171519120Y-77337880D01*
X171374891Y-77181927D01*
X171295545Y-77102812D01*
X171127422Y-76941471D01*
X171212385Y-76729114D01*
X171334922Y-76470943D01*
X171482113Y-76249427D01*
X171656463Y-76061404D01*
X171860481Y-75903712D01*
X171873713Y-75895151D01*
X171957810Y-75844498D01*
X172057196Y-75789547D01*
X172162494Y-75734899D01*
X172264328Y-75685157D01*
X172353320Y-75644923D01*
X172420095Y-75618801D01*
X172452345Y-75611130D01*
X172470403Y-75612129D01*
X172484573Y-75619237D01*
X172496623Y-75638623D01*
X172508320Y-75676454D01*
X172521434Y-75738899D01*
X172537733Y-75832125D01*
X172558986Y-75962301D01*
X172566641Y-76009784D01*
X172605020Y-76241274D01*
X172646035Y-76474736D01*
X172691259Y-76718419D01*
X172742264Y-76980568D01*
X172800626Y-77269430D01*
X172867917Y-77593253D01*
X172877451Y-77638574D01*
X172958887Y-78019202D01*
X173034241Y-78358274D01*
X173104438Y-78659252D01*
X173170405Y-78925599D01*
X173233068Y-79160777D01*
X173293351Y-79368248D01*
X173352181Y-79551474D01*
X173410484Y-79713918D01*
X173469184Y-79859042D01*
X173474374Y-79871040D01*
X173519719Y-79976761D01*
X173559393Y-80071955D01*
X173589174Y-80146308D01*
X173604838Y-80189505D01*
X173604973Y-80189964D01*
X173641506Y-80261653D01*
X173700931Y-80331682D01*
X173756648Y-80373958D01*
X173781346Y-80377937D01*
X173807074Y-80356877D01*
X173840356Y-80303929D01*
X173861712Y-80263660D01*
X173906577Y-80168490D01*
X173949073Y-80065209D01*
X173969555Y-80007722D01*
X174000348Y-79924367D01*
X174043665Y-79821697D01*
X174090639Y-79720626D01*
X174095114Y-79711578D01*
X174146473Y-79601721D01*
X174199057Y-79478576D01*
X174241085Y-79369874D01*
X174267241Y-79306078D01*
X174311559Y-79208815D01*
X174370759Y-79084819D01*
X174441561Y-78940821D01*
X174520687Y-78783556D01*
X174604855Y-78619757D01*
X174629735Y-78572001D01*
X174741588Y-78355616D01*
X174833584Y-78171940D01*
X174908797Y-78014315D01*
X174970301Y-77876083D01*
X175021172Y-77750584D01*
X175064483Y-77631160D01*
X175065417Y-77628425D01*
X175173374Y-77311869D01*
X175242666Y-77458136D01*
X175279678Y-77535452D01*
X175330407Y-77640323D01*
X175388398Y-77759453D01*
X175447196Y-77879545D01*
X175451919Y-77889157D01*
X175515078Y-78019733D01*
X175581896Y-78161325D01*
X175644162Y-78296353D01*
X175691265Y-78401713D01*
X175747709Y-78522002D01*
X175814675Y-78651181D01*
X175881103Y-78768326D01*
X175908012Y-78811758D01*
X175961259Y-78899482D01*
X176026884Y-79015229D01*
X176097679Y-79145884D01*
X176166440Y-79278334D01*
X176187858Y-79321011D01*
X176246469Y-79437409D01*
X176301341Y-79543539D01*
X176347896Y-79630753D01*
X176381557Y-79690403D01*
X176392878Y-79708275D01*
X176428705Y-79766702D01*
X176468384Y-79842210D01*
X176482016Y-79871040D01*
X176527142Y-79949877D01*
X176583702Y-80023184D01*
X176602060Y-80041892D01*
X176675505Y-80110233D01*
X176579242Y-79927991D01*
X176533752Y-79841496D01*
X176473922Y-79727199D01*
X176406362Y-79597751D01*
X176337681Y-79465809D01*
X176311514Y-79415435D01*
X176241871Y-79283976D01*
X176167654Y-79148426D01*
X176096312Y-79022114D01*
X176035296Y-78918365D01*
X176017240Y-78889021D01*
X175965753Y-78805366D01*
X175924885Y-78736223D01*
X175899814Y-78690512D01*
X175894430Y-78677370D01*
X175885032Y-78653323D01*
X175858612Y-78593959D01*
X175817835Y-78505051D01*
X175765366Y-78392370D01*
X175703870Y-78261689D01*
X175653690Y-78155891D01*
X175579703Y-78000334D01*
X175505653Y-77844510D01*
X175435924Y-77697661D01*
X175374906Y-77569029D01*
X175326985Y-77467856D01*
X175309936Y-77431787D01*
X175206923Y-77213609D01*
X175237282Y-77111378D01*
X175071575Y-77111378D01*
X174947427Y-77471392D01*
X174902884Y-77598267D01*
X174860161Y-77715818D01*
X174822761Y-77814705D01*
X174794186Y-77885590D01*
X174782357Y-77911537D01*
X174761420Y-77952360D01*
X174722718Y-78027648D01*
X174669359Y-78131364D01*
X174604449Y-78257475D01*
X174531092Y-78399943D01*
X174452395Y-78552734D01*
X174442180Y-78572565D01*
X174361066Y-78731875D01*
X174283805Y-78887086D01*
X174213849Y-79030996D01*
X174154650Y-79156403D01*
X174109660Y-79256108D01*
X174082330Y-79322907D01*
X174081825Y-79324314D01*
X174039859Y-79433343D01*
X173990236Y-79550381D01*
X173947002Y-79643237D01*
X173904866Y-79732582D01*
X173867355Y-79820233D01*
X173844243Y-79882430D01*
X173816101Y-79958193D01*
X173777853Y-80046402D01*
X173758859Y-80085947D01*
X173702512Y-80198342D01*
X173591173Y-79942856D01*
X173544755Y-79826496D01*
X173492131Y-79678182D01*
X173437420Y-79510335D01*
X173384741Y-79335375D01*
X173357346Y-79237756D01*
X173316019Y-79084053D01*
X173275309Y-78929047D01*
X173238137Y-78784121D01*
X173207423Y-78660659D01*
X173186559Y-78572147D01*
X173119524Y-78268363D01*
X173054331Y-77965221D01*
X172991591Y-77666047D01*
X172931912Y-77374169D01*
X172875905Y-77092914D01*
X172824180Y-76825609D01*
X172777346Y-76575581D01*
X172736012Y-76346157D01*
X172700790Y-76140664D01*
X172672287Y-75962430D01*
X172651115Y-75814781D01*
X172637882Y-75701044D01*
X172633199Y-75624547D01*
X172637675Y-75588616D01*
X172639450Y-75586744D01*
X172687755Y-75569062D01*
X172773686Y-75549976D01*
X172889379Y-75530605D01*
X173026969Y-75512067D01*
X173178593Y-75495481D01*
X173336385Y-75481966D01*
X173411381Y-75476936D01*
X173577670Y-75466970D01*
X173706189Y-75459727D01*
X173804637Y-75455064D01*
X173880714Y-75452836D01*
X173942120Y-75452902D01*
X173996555Y-75455116D01*
X174051719Y-75459336D01*
X174101641Y-75464068D01*
X174256565Y-75479305D01*
X174664070Y-76295341D01*
X175071575Y-77111378D01*
X175237282Y-77111378D01*
X175243143Y-77091643D01*
X175260041Y-77006131D01*
X175271866Y-76888510D01*
X175278561Y-76751004D01*
X175280072Y-76605837D01*
X175278011Y-76528071D01*
X175160395Y-76528071D01*
X175158808Y-76593987D01*
X175152823Y-76719881D01*
X175143171Y-76828017D01*
X175130951Y-76908258D01*
X175120876Y-76943775D01*
X175112707Y-76960602D01*
X175103856Y-76969701D01*
X175092255Y-76967539D01*
X175075835Y-76950583D01*
X175052531Y-76915300D01*
X175020275Y-76858155D01*
X174976999Y-76775617D01*
X174920636Y-76664151D01*
X174849119Y-76520224D01*
X174760381Y-76340303D01*
X174721030Y-76260367D01*
X174637136Y-76089335D01*
X174560287Y-75931527D01*
X174492664Y-75791509D01*
X174436450Y-75673850D01*
X174393826Y-75583117D01*
X174366973Y-75523878D01*
X174358073Y-75500700D01*
X174358126Y-75500582D01*
X174381550Y-75503212D01*
X174436649Y-75517632D01*
X174512011Y-75540822D01*
X174520464Y-75543586D01*
X174689404Y-75605088D01*
X174820241Y-75669184D01*
X174920196Y-75743086D01*
X174996492Y-75834004D01*
X175056351Y-75949150D01*
X175106996Y-76095734D01*
X175120240Y-76142410D01*
X175141500Y-76229978D01*
X175154472Y-76313996D01*
X175160367Y-76408636D01*
X175160395Y-76528071D01*
X175278011Y-76528071D01*
X175276344Y-76465232D01*
X175267320Y-76341415D01*
X175252946Y-76246608D01*
X175247068Y-76223932D01*
X175160093Y-76012675D01*
X175035978Y-75826795D01*
X174876564Y-75668085D01*
X174683693Y-75538337D01*
X174459206Y-75439345D01*
X174431815Y-75430134D01*
X174279065Y-75380289D01*
X174269984Y-75363570D01*
X174185910Y-75363570D01*
X174168054Y-75375866D01*
X174138856Y-75371463D01*
X174079283Y-75361414D01*
X173982148Y-75355308D01*
X173855248Y-75352840D01*
X173706385Y-75353706D01*
X173543356Y-75357602D01*
X173373962Y-75364223D01*
X173206002Y-75373266D01*
X173047274Y-75384425D01*
X172905579Y-75397398D01*
X172788716Y-75411879D01*
X172705193Y-75427389D01*
X172648030Y-75441039D01*
X172611871Y-75448922D01*
X172609409Y-75449336D01*
X172595241Y-75431211D01*
X172582095Y-75383887D01*
X172580991Y-75377632D01*
X172536262Y-75039823D01*
X172508878Y-74674881D01*
X172499114Y-74297914D01*
X172507243Y-73924032D01*
X172533542Y-73568342D01*
X172546145Y-73458394D01*
X172573760Y-73251995D01*
X172599893Y-73089297D01*
X172625911Y-72968532D01*
X172653179Y-72887928D01*
X172683063Y-72845717D01*
X172716927Y-72840129D01*
X172756139Y-72869394D01*
X172802062Y-72931741D01*
X172856063Y-73025403D01*
X172865940Y-73043926D01*
X172922371Y-73141366D01*
X172990655Y-73246529D01*
X173039442Y-73314487D01*
X173138311Y-73456072D01*
X173249326Y-73637265D01*
X173370368Y-73854404D01*
X173499316Y-74103830D01*
X173515949Y-74137224D01*
X173582217Y-74266723D01*
X173655943Y-74404214D01*
X173728172Y-74533344D01*
X173789951Y-74637757D01*
X173790343Y-74638390D01*
X173851189Y-74739052D01*
X173916791Y-74851560D01*
X173983141Y-74968570D01*
X174046233Y-75082736D01*
X174102061Y-75186713D01*
X174146617Y-75273157D01*
X174175895Y-75334721D01*
X174185910Y-75363570D01*
X174269984Y-75363570D01*
X174171619Y-75182481D01*
X174114557Y-75080099D01*
X174043350Y-74956234D01*
X173967966Y-74828063D01*
X173911423Y-74734089D01*
X173841242Y-74614702D01*
X173761094Y-74471611D01*
X173680556Y-74322267D01*
X173609205Y-74184122D01*
X173605126Y-74175973D01*
X173498395Y-73966176D01*
X173405337Y-73792347D01*
X173322381Y-73648281D01*
X173245954Y-73527775D01*
X173172483Y-73424626D01*
X173172178Y-73424224D01*
X173109500Y-73335521D01*
X173042344Y-73231212D01*
X172993895Y-73149053D01*
X172933534Y-73052361D01*
X172861650Y-72955516D01*
X172785255Y-72866100D01*
X172711361Y-72791695D01*
X172646978Y-72739884D01*
X172599117Y-72718248D01*
X172595323Y-72718036D01*
X172558544Y-72729390D01*
X172558544Y-72729390D01*
G37*
X172558544Y-72729390D02*
X172526882Y-72766249D01*
X172498909Y-72832808D01*
X172473199Y-72933261D01*
X172448326Y-73071803D01*
X172428747Y-73207811D01*
X172409671Y-73390680D01*
X172395784Y-73608290D01*
X172387084Y-73850121D01*
X172383570Y-74105649D01*
X172385240Y-74364353D01*
X172392091Y-74615711D01*
X172404123Y-74849201D01*
X172421333Y-75054300D01*
X172429072Y-75121354D01*
X172443622Y-75240548D01*
X172455151Y-75342657D01*
X172462827Y-75419676D01*
X172465823Y-75463597D01*
X172465285Y-75470668D01*
X172440562Y-75477942D01*
X172386466Y-75487289D01*
X172359675Y-75490987D01*
X172289607Y-75507791D01*
X172198757Y-75539948D01*
X172106164Y-75580673D01*
X172101516Y-75582968D01*
X171870119Y-75705945D01*
X171677338Y-75827571D01*
X171516839Y-75953934D01*
X171382286Y-76091121D01*
X171267347Y-76245218D01*
X171165688Y-76422314D01*
X171112276Y-76533629D01*
X171078141Y-76612698D01*
X171053212Y-76677664D01*
X171042359Y-76715722D01*
X171042233Y-76717779D01*
X171031821Y-76754720D01*
X171001343Y-76751889D01*
X170951938Y-76709839D01*
X170899741Y-76648574D01*
X170803563Y-76541052D01*
X170681913Y-76426894D01*
X170550255Y-76319467D01*
X170424053Y-76232140D01*
X170404386Y-76220333D01*
X170303651Y-76175710D01*
X170199632Y-76153445D01*
X170104971Y-76154539D01*
X170032314Y-76179994D01*
X170019529Y-76189862D01*
X169984179Y-76231826D01*
X169971561Y-76263898D01*
X169959537Y-76291895D01*
X169951347Y-76294538D01*
X169926827Y-76282428D01*
X169870917Y-76248766D01*
X169789947Y-76197554D01*
X169690246Y-76132793D01*
X169581967Y-76061040D01*
X169438426Y-75967482D01*
X169276603Y-75865960D01*
X169112550Y-75766311D01*
X168962322Y-75678371D01*
X168901738Y-75644258D01*
X168570676Y-75460974D01*
X168513264Y-75374676D01*
X168437897Y-75374676D01*
X168437808Y-75375614D01*
X168414985Y-75370378D01*
X168360939Y-75349481D01*
X168285570Y-75316872D01*
X168250743Y-75301005D01*
X168148141Y-75259199D01*
X168050635Y-75229327D01*
X167966862Y-75212946D01*
X167905460Y-75211616D01*
X167875067Y-75226895D01*
X167873374Y-75232894D01*
X167872164Y-75270068D01*
X167872051Y-75332537D01*
X167872289Y-75355526D01*
X167868676Y-75414343D01*
X167857350Y-75440085D01*
X167851571Y-75439397D01*
X167831522Y-75416965D01*
X167790359Y-75363782D01*
X167733024Y-75286472D01*
X167664458Y-75191660D01*
X167617417Y-75125495D01*
X167432967Y-74835494D01*
X167290341Y-74544466D01*
X167186365Y-74244233D01*
X167117868Y-73926615D01*
X167099313Y-73789558D01*
X167087200Y-73678298D01*
X167081309Y-73603139D01*
X167081988Y-73555003D01*
X167089579Y-73524813D01*
X167104429Y-73503490D01*
X167110410Y-73497407D01*
X167134640Y-73478125D01*
X167157512Y-73478780D01*
X167189198Y-73504320D01*
X167239871Y-73559692D01*
X167240943Y-73560905D01*
X167351578Y-73692776D01*
X167462083Y-73838752D01*
X167578234Y-74006967D01*
X167705807Y-74205553D01*
X167753668Y-74282832D01*
X167836222Y-74415951D01*
X167934452Y-74572405D01*
X168039026Y-74737446D01*
X168140612Y-74896322D01*
X168200700Y-74989422D01*
X168275262Y-75105391D01*
X168339878Y-75207788D01*
X168390931Y-75290725D01*
X168424809Y-75348317D01*
X168437897Y-75374676D01*
X168513264Y-75374676D01*
X168381927Y-75177263D01*
X168302480Y-75056545D01*
X168220243Y-74929381D01*
X168144203Y-74809801D01*
X168083351Y-74711837D01*
X168076117Y-74699919D01*
X167901607Y-74417023D01*
X167741578Y-74170052D01*
X167592131Y-73953243D01*
X167449370Y-73760832D01*
X167390572Y-73686041D01*
X167273078Y-73544336D01*
X167177276Y-73440893D01*
X167101448Y-73374887D01*
X167043871Y-73345496D01*
X167002828Y-73351894D01*
X166976596Y-73393260D01*
X166963457Y-73468770D01*
X166962613Y-73481175D01*
X166965893Y-73684125D01*
X166999120Y-73907184D01*
X167063102Y-74154108D01*
X167158647Y-74428655D01*
X167175619Y-74472116D01*
X167247434Y-74627631D01*
X167346607Y-74804260D01*
X167466916Y-74992321D01*
X167602138Y-75182136D01*
X167746053Y-75364024D01*
X167757908Y-75378123D01*
X167810473Y-75446783D01*
X167849156Y-75509426D01*
X167865143Y-75550816D01*
X167878939Y-75603059D01*
X167906816Y-75672316D01*
X167919992Y-75699615D01*
X167947402Y-75758206D01*
X167986124Y-75847361D01*
X168031085Y-75955131D01*
X168077210Y-76069568D01*
X168078823Y-76073648D01*
X168164552Y-76284406D01*
X168264335Y-76519358D01*
X168372328Y-76765405D01*
X168482684Y-77009449D01*
X168589560Y-77238394D01*
X168687109Y-77439140D01*
X168696969Y-77458837D01*
X168779292Y-77635049D01*
X168853688Y-77817923D01*
X168917283Y-77998489D01*
X168967207Y-78167779D01*
X169000586Y-78316823D01*
X169014547Y-78436653D01*
X169014789Y-78451212D01*
X169005303Y-78544323D01*
X168980194Y-78653335D01*
X168944487Y-78762742D01*
X168903207Y-78857035D01*
X168863379Y-78918518D01*
X168777490Y-78984042D01*
X168657806Y-79032444D01*
X168512913Y-79063323D01*
X168351400Y-79076272D01*
X168181854Y-79070888D01*
X168012862Y-79046767D01*
X167853012Y-79003504D01*
X167769084Y-78970035D01*
X167684762Y-78927538D01*
X167626660Y-78889911D01*
X167602638Y-78862332D01*
X167602413Y-78860267D01*
X167585803Y-78823733D01*
X167545618Y-78781803D01*
X167543469Y-78780090D01*
X167512009Y-78760636D01*
X167471935Y-78748122D01*
X167417627Y-78742816D01*
X167343462Y-78744988D01*
X167243819Y-78754908D01*
X167113078Y-78772845D01*
X166945616Y-78799070D01*
X166862054Y-78812773D01*
X166686869Y-78840009D01*
X166531236Y-78859634D01*
X166382433Y-78872440D01*
X166227737Y-78879220D01*
X166054423Y-78880767D01*
X165849770Y-78877872D01*
X165825552Y-78877334D01*
X165674977Y-78874127D01*
X165531536Y-78871496D01*
X165404590Y-78869579D01*
X165303506Y-78868517D01*
X165237645Y-78868450D01*
X165233265Y-78868504D01*
X165134773Y-78862565D01*
X165031835Y-78845442D01*
X164994072Y-78835599D01*
X164929018Y-78816018D01*
X164885154Y-78803307D01*
X164874475Y-78800614D01*
X164869734Y-78819437D01*
X164868780Y-78842860D01*
X164862268Y-78868914D01*
X164835023Y-78879178D01*
X164775483Y-78877563D01*
X164767982Y-78876956D01*
X164688289Y-78862827D01*
X164577097Y-78832923D01*
X164444168Y-78790797D01*
X164299260Y-78740003D01*
X164152132Y-78684095D01*
X164012545Y-78626627D01*
X163890257Y-78571153D01*
X163801650Y-78525064D01*
X163716764Y-78477446D01*
X163646327Y-78439897D01*
X163599818Y-78417363D01*
X163587137Y-78413103D01*
X163538833Y-78395186D01*
X163474714Y-78346768D01*
X163403331Y-78275844D01*
X163333234Y-78190413D01*
X163303130Y-78147471D01*
X163243875Y-78061940D01*
X163183302Y-77980951D01*
X163133484Y-77920569D01*
X163128874Y-77915548D01*
X163068153Y-77864300D01*
X162979271Y-77805567D01*
X162876791Y-77747697D01*
X162775274Y-77699039D01*
X162704833Y-77672445D01*
X162665378Y-77664639D01*
X162661322Y-77675368D01*
X162688194Y-77701113D01*
X162741524Y-77738359D01*
X162816843Y-77783587D01*
X162908440Y-77832651D01*
X163001650Y-77881508D01*
X163066478Y-77922315D01*
X163115725Y-77966506D01*
X163162194Y-78025516D01*
X163217161Y-78108412D01*
X163338786Y-78268659D01*
X163482325Y-78401248D01*
X163657212Y-78514237D01*
X163744425Y-78558814D01*
X163836775Y-78604940D01*
X163926321Y-78652759D01*
X163993895Y-78692027D01*
X163994651Y-78692503D01*
X164061211Y-78727010D01*
X164160185Y-78768965D01*
X164281481Y-78815008D01*
X164415004Y-78861778D01*
X164550663Y-78905915D01*
X164678363Y-78944058D01*
X164788012Y-78972848D01*
X164869516Y-78988924D01*
X164891239Y-78991011D01*
X164963272Y-78990635D01*
X164998466Y-78979963D01*
X165005462Y-78964105D01*
X165020660Y-78942309D01*
X165059195Y-78945596D01*
X165114550Y-78953751D01*
X165208261Y-78961187D01*
X165333126Y-78967789D01*
X165481943Y-78973445D01*
X165647512Y-78978041D01*
X165822632Y-78981465D01*
X166000101Y-78983603D01*
X166172718Y-78984342D01*
X166333281Y-78983569D01*
X166474591Y-78981171D01*
X166589445Y-78977034D01*
X166670642Y-78971046D01*
X166671626Y-78970935D01*
X166745163Y-78961382D01*
X166848409Y-78946438D01*
X166966159Y-78928359D01*
X167055686Y-78913961D01*
X167206755Y-78889778D01*
X167320308Y-78873929D01*
X167403636Y-78866508D01*
X167464031Y-78867606D01*
X167508786Y-78877316D01*
X167545192Y-78895729D01*
X167577734Y-78920566D01*
X167633196Y-78959663D01*
X167714592Y-79008096D01*
X167806240Y-79056656D01*
X167825700Y-79066190D01*
X167987545Y-79127620D01*
X168168131Y-79168226D01*
X168356518Y-79187703D01*
X168541768Y-79185751D01*
X168712939Y-79162067D01*
X168859094Y-79116350D01*
X168900888Y-79095873D01*
X168991795Y-79028666D01*
X169057187Y-78938095D01*
X169099655Y-78818477D01*
X169121787Y-78664127D01*
X169125104Y-78603696D01*
X169117806Y-78411133D01*
X169080611Y-78209030D01*
X169011918Y-77991492D01*
X168910128Y-77752621D01*
X168873619Y-77677371D01*
X168787790Y-77500164D01*
X168689995Y-77290427D01*
X168584672Y-77058135D01*
X168476262Y-76813262D01*
X168369202Y-76565783D01*
X168267932Y-76325672D01*
X168215945Y-76199473D01*
X168163245Y-76071278D01*
X168113734Y-75952650D01*
X168071043Y-75852155D01*
X168038804Y-75778356D01*
X168022764Y-75743868D01*
X168006138Y-75708180D01*
X168007489Y-75698916D01*
X168030772Y-75718304D01*
X168079944Y-75768569D01*
X168095309Y-75784709D01*
X168226395Y-75917008D01*
X168372912Y-76055158D01*
X168528071Y-76193546D01*
X168685087Y-76326560D01*
X168837172Y-76448584D01*
X168977540Y-76554007D01*
X169099402Y-76637214D01*
X169188566Y-76688929D01*
X169266493Y-76731206D01*
X169327374Y-76769904D01*
X169360349Y-76797968D01*
X169362846Y-76802180D01*
X169379893Y-76831226D01*
X169418565Y-76889718D01*
X169473782Y-76970188D01*
X169540464Y-77065169D01*
X169569524Y-77105992D01*
X169767498Y-77415197D01*
X169908106Y-77684941D01*
X169964420Y-77802028D01*
X170019732Y-77912020D01*
X170068666Y-78004556D01*
X170105846Y-78069276D01*
X170114357Y-78082382D01*
X170151034Y-78140614D01*
X170173388Y-78185288D01*
X170176583Y-78197716D01*
X170190964Y-78227461D01*
X170225748Y-78268244D01*
X170268394Y-78308212D01*
X170306361Y-78335509D01*
X170326336Y-78339284D01*
X170326882Y-78312410D01*
X170315628Y-78254340D01*
X170294969Y-78177172D01*
X170292848Y-78170093D01*
X170240107Y-77983749D01*
X170215949Y-77889157D01*
X170106923Y-77889157D01*
X170097108Y-77883700D01*
X170071093Y-77843878D01*
X170032771Y-77776220D01*
X169986034Y-77687250D01*
X169983246Y-77681769D01*
X169922901Y-77571270D01*
X169844401Y-77439513D01*
X169757073Y-77301579D01*
X169670247Y-77172547D01*
X169653571Y-77148866D01*
X169583604Y-77048886D01*
X169525091Y-76962352D01*
X169482275Y-76895780D01*
X169459400Y-76855688D01*
X169457007Y-76847058D01*
X169480758Y-76851511D01*
X169536249Y-76871952D01*
X169614107Y-76904736D01*
X169670350Y-76930051D01*
X169759511Y-76970039D01*
X169834102Y-77001482D01*
X169883880Y-77020170D01*
X169897556Y-77023506D01*
X169912766Y-77044223D01*
X169930511Y-77098920D01*
X169947282Y-77176421D01*
X169949387Y-77188663D01*
X169967314Y-77282696D01*
X169993342Y-77402329D01*
X170023376Y-77529265D01*
X170042421Y-77604403D01*
X170068613Y-77707775D01*
X170089632Y-77796875D01*
X170103128Y-77861324D01*
X170106923Y-77889157D01*
X170215949Y-77889157D01*
X170186190Y-77772639D01*
X170136017Y-77557146D01*
X170094504Y-77357656D01*
X170086232Y-77313636D01*
X170045506Y-77091209D01*
X170150910Y-77094095D01*
X170263810Y-77088299D01*
X170337726Y-77062694D01*
X170375340Y-77015902D01*
X170381605Y-76975588D01*
X170367313Y-76905626D01*
X170344436Y-76851396D01*
X170248888Y-76851396D01*
X170244732Y-76907160D01*
X170209356Y-76942417D01*
X170199363Y-76947876D01*
X170137276Y-76970532D01*
X170091157Y-76977610D01*
X170055333Y-76970086D01*
X170041536Y-76938172D01*
X170040063Y-76903910D01*
X170042682Y-76822165D01*
X170045985Y-76777479D01*
X169925418Y-76777479D01*
X169923884Y-76864954D01*
X169913363Y-76917044D01*
X169887340Y-76937698D01*
X169839299Y-76930865D01*
X169762725Y-76900492D01*
X169651101Y-76850527D01*
X169618466Y-76836100D01*
X169528063Y-76795491D01*
X169452484Y-76759805D01*
X169402191Y-76734071D01*
X169388658Y-76725628D01*
X169366789Y-76698342D01*
X169338538Y-76656987D01*
X169258894Y-76656987D01*
X169256931Y-76659022D01*
X169232180Y-76648922D01*
X169178206Y-76622180D01*
X169105694Y-76584132D01*
X169089609Y-76575474D01*
X168978604Y-76507411D01*
X168845509Y-76413065D01*
X168698981Y-76299771D01*
X168547681Y-76174865D01*
X168400268Y-76045682D01*
X168265400Y-75919558D01*
X168151738Y-75803828D01*
X168077370Y-75717978D01*
X168028019Y-75652229D01*
X168001950Y-75601835D01*
X167992801Y-75547552D01*
X167994213Y-75470136D01*
X167994371Y-75466853D01*
X167999247Y-75390675D01*
X168008320Y-75348725D01*
X168027426Y-75329702D01*
X168062399Y-75322302D01*
X168069408Y-75321493D01*
X168134934Y-75328717D01*
X168223257Y-75357332D01*
X168321570Y-75400887D01*
X168417066Y-75452928D01*
X168496938Y-75507003D01*
X168548378Y-75556657D01*
X168554304Y-75565803D01*
X168583042Y-75612094D01*
X168631323Y-75684902D01*
X168692092Y-75773751D01*
X168750149Y-75856677D01*
X168844373Y-75991678D01*
X168936334Y-76126962D01*
X169022787Y-76257393D01*
X169100488Y-76377835D01*
X169166194Y-76483152D01*
X169216659Y-76568207D01*
X169248641Y-76627864D01*
X169258894Y-76656987D01*
X169338538Y-76656987D01*
X169327887Y-76641396D01*
X169278269Y-76564251D01*
X169243996Y-76508958D01*
X169183180Y-76412686D01*
X169105457Y-76294354D01*
X169020693Y-76168763D01*
X168938751Y-76050717D01*
X168936395Y-76047385D01*
X168840973Y-75910311D01*
X168760690Y-75790635D01*
X168698046Y-75692387D01*
X168655541Y-75619595D01*
X168635673Y-75576288D01*
X168637450Y-75565569D01*
X168669764Y-75577029D01*
X168734251Y-75608912D01*
X168824463Y-75657471D01*
X168933950Y-75718959D01*
X169056265Y-75789629D01*
X169184959Y-75865735D01*
X169313584Y-75943529D01*
X169435692Y-76019264D01*
X169544833Y-76089195D01*
X169589232Y-76118599D01*
X169924481Y-76343592D01*
X169924481Y-76650673D01*
X169925418Y-76777479D01*
X170045985Y-76777479D01*
X170049304Y-76732579D01*
X170058560Y-76646621D01*
X170069082Y-76575758D01*
X170079502Y-76531458D01*
X170085582Y-76522340D01*
X170106514Y-76541546D01*
X170137970Y-76591082D01*
X170173936Y-76658828D01*
X170208396Y-76732661D01*
X170235335Y-76800461D01*
X170248735Y-76850107D01*
X170248888Y-76851396D01*
X170344436Y-76851396D01*
X170328985Y-76814770D01*
X170273451Y-76715641D01*
X170207535Y-76620860D01*
X170158968Y-76563960D01*
X170110984Y-76507707D01*
X170091736Y-76464851D01*
X170094642Y-76420007D01*
X170095631Y-76415889D01*
X170133965Y-76326562D01*
X170195484Y-76276282D01*
X170281226Y-76264278D01*
X170297897Y-76265939D01*
X170442068Y-76306636D01*
X170589838Y-76391884D01*
X170740125Y-76520914D01*
X170882216Y-76680800D01*
X170944209Y-76763163D01*
X170977756Y-76820834D01*
X170986755Y-76861209D01*
X170984271Y-76874432D01*
X170974562Y-76919242D01*
X170963139Y-76994148D01*
X170952299Y-77083863D01*
X170951196Y-77094421D01*
X170940418Y-77185686D01*
X170928604Y-77264693D01*
X170918136Y-77315707D01*
X170917209Y-77318809D01*
X170906152Y-77382653D01*
X170901099Y-77473925D01*
X170902130Y-77574880D01*
X170909320Y-77667774D01*
X170915503Y-77706914D01*
X170935066Y-77771777D01*
X170968467Y-77854583D01*
X170995711Y-77911937D01*
X171033045Y-77988359D01*
X171063037Y-78055967D01*
X171075997Y-78090507D01*
X171119138Y-78182375D01*
X171194727Y-78290893D01*
X171296005Y-78409507D01*
X171416209Y-78531663D01*
X171548581Y-78650806D01*
X171686359Y-78760383D01*
X171822784Y-78853839D01*
X171921208Y-78909952D01*
X171976153Y-78934846D01*
X172057991Y-78968064D01*
X172156859Y-79006033D01*
X172262895Y-79045179D01*
X172366238Y-79081929D01*
X172457023Y-79112709D01*
X172525391Y-79133947D01*
X172561477Y-79142067D01*
X172561836Y-79142071D01*
X172566244Y-79122006D01*
X172568452Y-79072652D01*
X172568511Y-79062015D01*
X172557480Y-79008834D01*
X172536621Y-78951048D01*
X172442348Y-78951048D01*
X172438981Y-78994914D01*
X172421176Y-79005390D01*
X172387430Y-78998596D01*
X172320708Y-78980180D01*
X172231205Y-78953089D01*
X172145428Y-78925640D01*
X171973597Y-78864420D01*
X171831644Y-78800960D01*
X171704285Y-78727008D01*
X171576235Y-78634316D01*
X171516657Y-78586230D01*
X171373310Y-78451602D01*
X171267656Y-78313563D01*
X171192311Y-78162520D01*
X171158210Y-78083698D01*
X171121186Y-78010353D01*
X171110272Y-77991559D01*
X171064399Y-77885048D01*
X171036252Y-77752311D01*
X171028041Y-77609963D01*
X171041701Y-77475973D01*
X171059823Y-77373318D01*
X171077168Y-77254351D01*
X171087786Y-77165029D01*
X171098165Y-77081894D01*
X171109790Y-77017290D01*
X171120315Y-76983972D01*
X171121283Y-76982786D01*
X171144225Y-76990490D01*
X171190973Y-77029000D01*
X171257023Y-77093423D01*
X171337871Y-77178868D01*
X171429014Y-77280441D01*
X171525949Y-77393250D01*
X171624171Y-77512404D01*
X171715829Y-77628653D01*
X171815161Y-77763874D01*
X171914879Y-77910757D01*
X172012614Y-78064680D01*
X172105998Y-78221022D01*
X172192664Y-78375160D01*
X172270244Y-78522473D01*
X172336370Y-78658340D01*
X172388675Y-78778140D01*
X172424790Y-78877249D01*
X172442348Y-78951048D01*
X172536621Y-78951048D01*
X172526263Y-78922355D01*
X172477678Y-78808606D01*
X172414543Y-78673617D01*
X172339674Y-78523418D01*
X172255889Y-78364036D01*
X172168401Y-78205727D01*
X172074409Y-78053623D01*
X171954601Y-77880823D01*
X171816860Y-77697291D01*
X171669071Y-77512989D01*
X171519120Y-77337880D01*
X171374891Y-77181927D01*
X171295545Y-77102812D01*
X171127422Y-76941471D01*
X171212385Y-76729114D01*
X171334922Y-76470943D01*
X171482113Y-76249427D01*
X171656463Y-76061404D01*
X171860481Y-75903712D01*
X171873713Y-75895151D01*
X171957810Y-75844498D01*
X172057196Y-75789547D01*
X172162494Y-75734899D01*
X172264328Y-75685157D01*
X172353320Y-75644923D01*
X172420095Y-75618801D01*
X172452345Y-75611130D01*
X172470403Y-75612129D01*
X172484573Y-75619237D01*
X172496623Y-75638623D01*
X172508320Y-75676454D01*
X172521434Y-75738899D01*
X172537733Y-75832125D01*
X172558986Y-75962301D01*
X172566641Y-76009784D01*
X172605020Y-76241274D01*
X172646035Y-76474736D01*
X172691259Y-76718419D01*
X172742264Y-76980568D01*
X172800626Y-77269430D01*
X172867917Y-77593253D01*
X172877451Y-77638574D01*
X172958887Y-78019202D01*
X173034241Y-78358274D01*
X173104438Y-78659252D01*
X173170405Y-78925599D01*
X173233068Y-79160777D01*
X173293351Y-79368248D01*
X173352181Y-79551474D01*
X173410484Y-79713918D01*
X173469184Y-79859042D01*
X173474374Y-79871040D01*
X173519719Y-79976761D01*
X173559393Y-80071955D01*
X173589174Y-80146308D01*
X173604838Y-80189505D01*
X173604973Y-80189964D01*
X173641506Y-80261653D01*
X173700931Y-80331682D01*
X173756648Y-80373958D01*
X173781346Y-80377937D01*
X173807074Y-80356877D01*
X173840356Y-80303929D01*
X173861712Y-80263660D01*
X173906577Y-80168490D01*
X173949073Y-80065209D01*
X173969555Y-80007722D01*
X174000348Y-79924367D01*
X174043665Y-79821697D01*
X174090639Y-79720626D01*
X174095114Y-79711578D01*
X174146473Y-79601721D01*
X174199057Y-79478576D01*
X174241085Y-79369874D01*
X174267241Y-79306078D01*
X174311559Y-79208815D01*
X174370759Y-79084819D01*
X174441561Y-78940821D01*
X174520687Y-78783556D01*
X174604855Y-78619757D01*
X174629735Y-78572001D01*
X174741588Y-78355616D01*
X174833584Y-78171940D01*
X174908797Y-78014315D01*
X174970301Y-77876083D01*
X175021172Y-77750584D01*
X175064483Y-77631160D01*
X175065417Y-77628425D01*
X175173374Y-77311869D01*
X175242666Y-77458136D01*
X175279678Y-77535452D01*
X175330407Y-77640323D01*
X175388398Y-77759453D01*
X175447196Y-77879545D01*
X175451919Y-77889157D01*
X175515078Y-78019733D01*
X175581896Y-78161325D01*
X175644162Y-78296353D01*
X175691265Y-78401713D01*
X175747709Y-78522002D01*
X175814675Y-78651181D01*
X175881103Y-78768326D01*
X175908012Y-78811758D01*
X175961259Y-78899482D01*
X176026884Y-79015229D01*
X176097679Y-79145884D01*
X176166440Y-79278334D01*
X176187858Y-79321011D01*
X176246469Y-79437409D01*
X176301341Y-79543539D01*
X176347896Y-79630753D01*
X176381557Y-79690403D01*
X176392878Y-79708275D01*
X176428705Y-79766702D01*
X176468384Y-79842210D01*
X176482016Y-79871040D01*
X176527142Y-79949877D01*
X176583702Y-80023184D01*
X176602060Y-80041892D01*
X176675505Y-80110233D01*
X176579242Y-79927991D01*
X176533752Y-79841496D01*
X176473922Y-79727199D01*
X176406362Y-79597751D01*
X176337681Y-79465809D01*
X176311514Y-79415435D01*
X176241871Y-79283976D01*
X176167654Y-79148426D01*
X176096312Y-79022114D01*
X176035296Y-78918365D01*
X176017240Y-78889021D01*
X175965753Y-78805366D01*
X175924885Y-78736223D01*
X175899814Y-78690512D01*
X175894430Y-78677370D01*
X175885032Y-78653323D01*
X175858612Y-78593959D01*
X175817835Y-78505051D01*
X175765366Y-78392370D01*
X175703870Y-78261689D01*
X175653690Y-78155891D01*
X175579703Y-78000334D01*
X175505653Y-77844510D01*
X175435924Y-77697661D01*
X175374906Y-77569029D01*
X175326985Y-77467856D01*
X175309936Y-77431787D01*
X175206923Y-77213609D01*
X175237282Y-77111378D01*
X175071575Y-77111378D01*
X174947427Y-77471392D01*
X174902884Y-77598267D01*
X174860161Y-77715818D01*
X174822761Y-77814705D01*
X174794186Y-77885590D01*
X174782357Y-77911537D01*
X174761420Y-77952360D01*
X174722718Y-78027648D01*
X174669359Y-78131364D01*
X174604449Y-78257475D01*
X174531092Y-78399943D01*
X174452395Y-78552734D01*
X174442180Y-78572565D01*
X174361066Y-78731875D01*
X174283805Y-78887086D01*
X174213849Y-79030996D01*
X174154650Y-79156403D01*
X174109660Y-79256108D01*
X174082330Y-79322907D01*
X174081825Y-79324314D01*
X174039859Y-79433343D01*
X173990236Y-79550381D01*
X173947002Y-79643237D01*
X173904866Y-79732582D01*
X173867355Y-79820233D01*
X173844243Y-79882430D01*
X173816101Y-79958193D01*
X173777853Y-80046402D01*
X173758859Y-80085947D01*
X173702512Y-80198342D01*
X173591173Y-79942856D01*
X173544755Y-79826496D01*
X173492131Y-79678182D01*
X173437420Y-79510335D01*
X173384741Y-79335375D01*
X173357346Y-79237756D01*
X173316019Y-79084053D01*
X173275309Y-78929047D01*
X173238137Y-78784121D01*
X173207423Y-78660659D01*
X173186559Y-78572147D01*
X173119524Y-78268363D01*
X173054331Y-77965221D01*
X172991591Y-77666047D01*
X172931912Y-77374169D01*
X172875905Y-77092914D01*
X172824180Y-76825609D01*
X172777346Y-76575581D01*
X172736012Y-76346157D01*
X172700790Y-76140664D01*
X172672287Y-75962430D01*
X172651115Y-75814781D01*
X172637882Y-75701044D01*
X172633199Y-75624547D01*
X172637675Y-75588616D01*
X172639450Y-75586744D01*
X172687755Y-75569062D01*
X172773686Y-75549976D01*
X172889379Y-75530605D01*
X173026969Y-75512067D01*
X173178593Y-75495481D01*
X173336385Y-75481966D01*
X173411381Y-75476936D01*
X173577670Y-75466970D01*
X173706189Y-75459727D01*
X173804637Y-75455064D01*
X173880714Y-75452836D01*
X173942120Y-75452902D01*
X173996555Y-75455116D01*
X174051719Y-75459336D01*
X174101641Y-75464068D01*
X174256565Y-75479305D01*
X174664070Y-76295341D01*
X175071575Y-77111378D01*
X175237282Y-77111378D01*
X175243143Y-77091643D01*
X175260041Y-77006131D01*
X175271866Y-76888510D01*
X175278561Y-76751004D01*
X175280072Y-76605837D01*
X175278011Y-76528071D01*
X175160395Y-76528071D01*
X175158808Y-76593987D01*
X175152823Y-76719881D01*
X175143171Y-76828017D01*
X175130951Y-76908258D01*
X175120876Y-76943775D01*
X175112707Y-76960602D01*
X175103856Y-76969701D01*
X175092255Y-76967539D01*
X175075835Y-76950583D01*
X175052531Y-76915300D01*
X175020275Y-76858155D01*
X174976999Y-76775617D01*
X174920636Y-76664151D01*
X174849119Y-76520224D01*
X174760381Y-76340303D01*
X174721030Y-76260367D01*
X174637136Y-76089335D01*
X174560287Y-75931527D01*
X174492664Y-75791509D01*
X174436450Y-75673850D01*
X174393826Y-75583117D01*
X174366973Y-75523878D01*
X174358073Y-75500700D01*
X174358126Y-75500582D01*
X174381550Y-75503212D01*
X174436649Y-75517632D01*
X174512011Y-75540822D01*
X174520464Y-75543586D01*
X174689404Y-75605088D01*
X174820241Y-75669184D01*
X174920196Y-75743086D01*
X174996492Y-75834004D01*
X175056351Y-75949150D01*
X175106996Y-76095734D01*
X175120240Y-76142410D01*
X175141500Y-76229978D01*
X175154472Y-76313996D01*
X175160367Y-76408636D01*
X175160395Y-76528071D01*
X175278011Y-76528071D01*
X175276344Y-76465232D01*
X175267320Y-76341415D01*
X175252946Y-76246608D01*
X175247068Y-76223932D01*
X175160093Y-76012675D01*
X175035978Y-75826795D01*
X174876564Y-75668085D01*
X174683693Y-75538337D01*
X174459206Y-75439345D01*
X174431815Y-75430134D01*
X174279065Y-75380289D01*
X174269984Y-75363570D01*
X174185910Y-75363570D01*
X174168054Y-75375866D01*
X174138856Y-75371463D01*
X174079283Y-75361414D01*
X173982148Y-75355308D01*
X173855248Y-75352840D01*
X173706385Y-75353706D01*
X173543356Y-75357602D01*
X173373962Y-75364223D01*
X173206002Y-75373266D01*
X173047274Y-75384425D01*
X172905579Y-75397398D01*
X172788716Y-75411879D01*
X172705193Y-75427389D01*
X172648030Y-75441039D01*
X172611871Y-75448922D01*
X172609409Y-75449336D01*
X172595241Y-75431211D01*
X172582095Y-75383887D01*
X172580991Y-75377632D01*
X172536262Y-75039823D01*
X172508878Y-74674881D01*
X172499114Y-74297914D01*
X172507243Y-73924032D01*
X172533542Y-73568342D01*
X172546145Y-73458394D01*
X172573760Y-73251995D01*
X172599893Y-73089297D01*
X172625911Y-72968532D01*
X172653179Y-72887928D01*
X172683063Y-72845717D01*
X172716927Y-72840129D01*
X172756139Y-72869394D01*
X172802062Y-72931741D01*
X172856063Y-73025403D01*
X172865940Y-73043926D01*
X172922371Y-73141366D01*
X172990655Y-73246529D01*
X173039442Y-73314487D01*
X173138311Y-73456072D01*
X173249326Y-73637265D01*
X173370368Y-73854404D01*
X173499316Y-74103830D01*
X173515949Y-74137224D01*
X173582217Y-74266723D01*
X173655943Y-74404214D01*
X173728172Y-74533344D01*
X173789951Y-74637757D01*
X173790343Y-74638390D01*
X173851189Y-74739052D01*
X173916791Y-74851560D01*
X173983141Y-74968570D01*
X174046233Y-75082736D01*
X174102061Y-75186713D01*
X174146617Y-75273157D01*
X174175895Y-75334721D01*
X174185910Y-75363570D01*
X174269984Y-75363570D01*
X174171619Y-75182481D01*
X174114557Y-75080099D01*
X174043350Y-74956234D01*
X173967966Y-74828063D01*
X173911423Y-74734089D01*
X173841242Y-74614702D01*
X173761094Y-74471611D01*
X173680556Y-74322267D01*
X173609205Y-74184122D01*
X173605126Y-74175973D01*
X173498395Y-73966176D01*
X173405337Y-73792347D01*
X173322381Y-73648281D01*
X173245954Y-73527775D01*
X173172483Y-73424626D01*
X173172178Y-73424224D01*
X173109500Y-73335521D01*
X173042344Y-73231212D01*
X172993895Y-73149053D01*
X172933534Y-73052361D01*
X172861650Y-72955516D01*
X172785255Y-72866100D01*
X172711361Y-72791695D01*
X172646978Y-72739884D01*
X172599117Y-72718248D01*
X172595323Y-72718036D01*
X172558544Y-72729390D01*
M02*
